<?xml version="1.0" encoding="UTF-8"?>
<svg id="Lag_2" data-name="Lag 2" xmlns="http://www.w3.org/2000/svg" xmlns:xlink="http://www.w3.org/1999/xlink" viewBox="0 0 882.13 1095.68">
  <defs>
    <style>
      .cls-1 {
        fill: #fee9af;
      }

      .cls-1, .cls-2, .cls-3, .cls-4 {
        fill-rule: evenodd;
      }

      .cls-2 {
        fill: #d8af3f;
      }

      .cls-3 {
        fill: #ffd255;
      }

      .cls-5 {
        clip-path: url(#clippath);
      }

      .cls-6 {
        clip-rule: evenodd;
        fill: none;
      }
    </style>
    <clipPath id="clippath">
      <path class="cls-6" d="m447.61,0c239.82,0,434.52,195.07,434.52,435.34s-194.7,435.34-434.52,435.34S13.08,675.6,13.08,435.34,207.79,0,447.61,0h0Z"/>
    </clipPath>
  </defs>
  <g id="Lag_1-2" data-name="Lag 1">
    <g>
      <path class="cls-3" d="m447.61,0c239.82,0,434.52,195.07,434.52,435.34s-194.7,435.34-434.52,435.34S13.08,675.6,13.08,435.34,207.79,0,447.61,0h0Z"/>
      <g class="cls-5">
        <path class="cls-2" d="m0,404.34s166.72,663.73,794.91,327.04l-12.17,364.3-764.81-25.29L0,404.34h0Z"/>
        <path class="cls-1" d="m754.59,171.11c6.69,0,12.13,6.04,12.13,13.48s-5.43,13.48-12.13,13.48-12.13-6.04-12.13-13.48,5.43-13.48,12.13-13.48h0Zm-183.45-111.27c9.32-13.79,55.86-7.09,101.76,23.92,45.9,31.01,71.23,70.25,61.91,84.04-9.32,13.79-42.15-26.76-88.05-57.77-45.9-31.01-84.94-36.39-75.62-50.19h0Z"/>
        <path class="cls-4" d="m625.31,237.09c14.62,0,26.48,29.83,26.48,66.57s-11.87,66.57-26.48,66.57-26.48-29.83-26.48-66.57,11.87-66.57,26.48-66.57h0Z"/>
        <path class="cls-4" d="m270.91,237.09c14.62,0,26.48,29.83,26.48,66.57s-11.87,66.57-26.48,66.57-26.48-29.83-26.48-66.57,11.87-66.57,26.48-66.57h0Z"/>
        <path class="cls-4" d="m280.21,647.48s26.62-44.28,71.41-77.06c29.4-21.51,66.71-38.13,109.58-33.29,46.55,5.26,99.22,35.72,155.51,110.88,2.07,2.76,5.99,3.32,8.75,1.26,2.76-2.07,3.32-5.99,1.26-8.75-59.2-79.04-115.17-110.27-164.12-115.8-46.27-5.23-86.63,12.4-118.37,35.62-46.9,34.32-74.75,80.71-74.75,80.71-1.78,2.96-.82,6.8,2.14,8.58s6.8.82,8.58-2.14h0Z"/>
      </g>
    </g>
  </g>
</svg>