<?xml version="1.0" encoding="UTF-8"?>
<svg id="Lag_2" data-name="Lag 2" xmlns="http://www.w3.org/2000/svg" xmlns:xlink="http://www.w3.org/1999/xlink" viewBox="0 0 910.63 1131.08">
  <defs>
    <style>
      .cls-1 {
        clip-path: url(#clippath-2);
      }

      .cls-2 {
        fill: #fee9af;
      }

      .cls-2, .cls-3, .cls-4, .cls-5, .cls-6 {
        fill-rule: evenodd;
      }

      .cls-3 {
        fill: #d8af3f;
      }

      .cls-4 {
        fill: #ffd255;
      }

      .cls-5 {
        fill: #ff676b;
      }

      .cls-7 {
        clip-path: url(#clippath-1);
      }

      .cls-7, .cls-8 {
        clip-rule: evenodd;
        fill: none;
      }

      .cls-9 {
        clip-path: url(#clippath);
      }
    </style>
    <clipPath id="clippath">
      <path class="cls-8" d="m462.07,0c247.57,0,448.56,201.37,448.56,449.4s-200.99,449.4-448.56,449.4S13.51,697.44,13.51,449.4,214.5,0,462.07,0h0Z"/>
    </clipPath>
    <clipPath id="clippath-1">
      <path class="cls-8" d="m677.64,537.36H245.59v23.76c0,57.29,22.76,112.24,63.27,152.75,40.51,40.51,95.46,63.27,152.75,63.27h0c119.31,0,216.02-96.72,216.02-216.03v-23.76h0Z"/>
    </clipPath>
    <clipPath id="clippath-2">
      <path class="cls-7" d="m462.07,0c247.57,0,448.56,201.37,448.56,449.4s-200.99,449.4-448.56,449.4S13.51,697.44,13.51,449.4,214.5,0,462.07,0h0Z"/>
    </clipPath>
  </defs>
  <g id="Lag_1-2" data-name="Lag 1">
    <g>
      <path class="cls-4" d="m462.07,0c247.57,0,448.56,201.37,448.56,449.4s-200.99,449.4-448.56,449.4S13.51,697.44,13.51,449.4,214.5,0,462.07,0h0Z"/>
      <g class="cls-9">
        <path class="cls-3" d="m0,417.41s172.1,685.18,820.6,337.6l-12.56,376.07-789.53-26.1L0,417.41h0Z"/>
        <path class="cls-2" d="m778.97,176.63c6.91,0,12.52,6.23,12.52,13.91s-5.61,13.91-12.52,13.91-12.52-6.23-12.52-13.91,5.61-13.91,12.52-13.91h0Z"/>
        <path class="cls-2" d="m589.59,61.77c9.62-14.24,57.66-7.32,105.05,24.69,47.39,32.01,73.53,72.52,63.91,86.76-9.62,14.24-43.51-27.62-90.9-59.63-47.39-32.01-87.68-37.57-78.07-51.81h0Z"/>
        <path class="cls-6" d="m643.8,252.87c15.09,0,27.34,30.79,27.34,68.72s-12.25,68.72-27.34,68.72-27.34-30.79-27.34-68.72,12.25-68.72,27.34-68.72h0Z"/>
        <path class="cls-6" d="m277.95,252.87c15.09,0,27.34,30.79,27.34,68.72s-12.25,68.72-27.34,68.72-27.34-30.79-27.34-68.72,12.25-68.72,27.34-68.72h0Z"/>
        <path class="cls-6" d="m677.64,537.36H245.59v23.76c0,57.29,22.76,112.24,63.27,152.75,40.51,40.51,95.46,63.27,152.75,63.27h0c119.31,0,216.02-96.72,216.02-216.03v-23.76h0Z"/>
      </g>
      <g class="cls-1">
        <path class="cls-5" d="m461.25,638.32c87.93,0,159.32,59.68,159.32,133.18s-71.39,133.18-159.32,133.18-159.32-59.68-159.32-133.18,71.39-133.18,159.32-133.18h0Z"/>
      </g>
    </g>
  </g>
</svg>