<?xml version="1.0" encoding="UTF-8"?>
<svg id="Lag_2" data-name="Lag 2" xmlns="http://www.w3.org/2000/svg" xmlns:xlink="http://www.w3.org/1999/xlink" viewBox="0 0 882.12 1095.68">
  <defs>
    <style>
      .cls-1 {
        fill: #fee9af;
      }

      .cls-1, .cls-2, .cls-3, .cls-4 {
        fill-rule: evenodd;
      }

      .cls-2 {
        fill: #d8af3f;
      }

      .cls-3 {
        fill: #ffd255;
      }

      .cls-5 {
        clip-path: url(#clippath);
      }

      .cls-6 {
        clip-rule: evenodd;
        fill: none;
      }
    </style>
    <clipPath id="clippath">
      <path class="cls-6" d="m447.6,0c239.82,0,434.52,195.07,434.52,435.34s-194.7,435.34-434.52,435.34S13.08,675.6,13.08,435.34,207.78,0,447.6,0h0Z"/>
    </clipPath>
  </defs>
  <g id="Lag_1-2" data-name="Lag 1">
    <g>
      <path class="cls-3" d="m447.6,0c239.82,0,434.52,195.07,434.52,435.34s-194.7,435.34-434.52,435.34S13.08,675.6,13.08,435.34,207.78,0,447.6,0h0Z"/>
      <g class="cls-5">
        <path class="cls-2" d="m0,404.34s166.72,663.73,794.91,327.03l-12.17,364.3-764.82-25.29L0,404.34h0Z"/>
        <path class="cls-1" d="m754.59,171.11c6.69,0,12.13,6.04,12.13,13.48s-5.43,13.48-12.13,13.48-12.13-6.04-12.13-13.48,5.43-13.48,12.13-13.48h0Zm-183.45-111.27c9.32-13.79,55.86-7.09,101.76,23.92,45.9,31.01,71.23,70.25,61.91,84.04-9.32,13.79-42.15-26.76-88.05-57.77-45.9-31.01-84.94-36.39-75.62-50.19h0Z"/>
        <path class="cls-4" d="m337,659.39s49.01-53.92,119.93-48.53c30.59,2.32,65.15,15.75,101.69,48.95,2.55,2.32,6.51,2.13,8.83-.42,2.32-2.55,2.13-6.51-.42-8.83-39.17-35.59-76.36-49.68-109.15-52.17-76.94-5.85-130.13,52.59-130.13,52.59-2.32,2.55-2.13,6.51.42,8.83,2.55,2.32,6.51,2.13,8.83-.42h0Z"/>
        <path class="cls-4" d="m502.16,325.62c14.62,0,26.48,29.83,26.48,66.57s-11.87,66.57-26.48,66.57-26.48-29.83-26.48-66.57,11.87-66.57,26.48-66.57h0Zm-125.53,0c14.62,0,26.48,29.83,26.48,66.57s-11.87,66.57-26.48,66.57-26.48-29.83-26.48-66.57,11.87-66.57,26.48-66.57h0Z"/>
        <path class="cls-4" d="m473.32,314.82l179.78-51.37c3.32-.95,5.24-4.41,4.29-7.73-.95-3.32-4.41-5.24-7.73-4.29l-179.78,51.37c-3.32.95-5.24,4.41-4.29,7.73.95,3.32,4.41,5.24,7.73,4.29h0Zm-64.35-12.02l-179.78-51.37c-3.32-.95-6.78.98-7.73,4.29-.95,3.32.98,6.78,4.29,7.73l179.78,51.37c3.32.95,6.78-.98,7.73-4.29s-.98-6.78-4.29-7.73h0Z"/>
      </g>
    </g>
  </g>
</svg>