<?xml version="1.0" encoding="utf-8"?>
<!-- Generator: Adobe Illustrator 27.5.0, SVG Export Plug-In . SVG Version: 6.00 Build 0)  -->
<svg version="1.1" id="Lag_2_00000148626364697764239410000000357678504985007027_"
	 xmlns="http://www.w3.org/2000/svg" xmlns:xlink="http://www.w3.org/1999/xlink" x="0px" y="0px" viewBox="0 0 897.1 898.8"
	 style="enable-background:new 0 0 897.1 898.8;" xml:space="preserve">
<style type="text/css">
	.st0{fill-rule:evenodd;clip-rule:evenodd;fill:#FFD255;}
	.st1{clip-path:url(#SVGID_00000100365704747003309750000003844297613886688426_);}
	.st2{fill-rule:evenodd;clip-rule:evenodd;fill:#D8AF3F;}
	.st3{fill-rule:evenodd;clip-rule:evenodd;fill:#FEE9AF;}
	.st4{fill-rule:evenodd;clip-rule:evenodd;}
	.st5{clip-path:url(#SVGID_00000121270338059012319880000013735732267725369789_);}
	.st6{clip-path:url(#SVGID_00000134948300316462413000000013873074537394720174_);}
	.st7{fill-rule:evenodd;clip-rule:evenodd;fill:#FF676B;}
	.st8{clip-path:url(#SVGID_00000134251972880165719220000009376073443566154918_);}
</style>
<g id="Lag_1-2">
	<g>
		<path class="st0" d="M448.6,0c247.6,0,448.6,201.4,448.6,449.4s-201,449.4-448.6,449.4S0,697.4,0,449.4S201,0,448.6,0L448.6,0z"/>
		<g>
			<defs>
				<path id="SVGID_1_" d="M448.6,0c247.6,0,448.6,201.4,448.6,449.4s-201,449.4-448.6,449.4S0,697.4,0,449.4S201,0,448.6,0L448.6,0
					z"/>
			</defs>
			<clipPath id="SVGID_00000140723419189007728480000016052565273768827520_">
				<use xlink:href="#SVGID_1_"  style="overflow:visible;"/>
			</clipPath>
			<g style="clip-path:url(#SVGID_00000140723419189007728480000016052565273768827520_);">
				<path class="st2" d="M-13.5,417.4c0,0,172.1,685.2,820.6,337.6l-12.6,376.1L5,1105L-13.5,417.4L-13.5,417.4z"/>
				<path class="st3" d="M765.5,176.6c6.9,0,12.5,6.2,12.5,13.9s-5.6,13.9-12.5,13.9s-12.5-6.2-12.5-13.9S758.6,176.6,765.5,176.6
					L765.5,176.6z"/>
				<path class="st3" d="M576.1,61.8c9.6-14.2,57.7-7.3,105,24.7s73.5,72.5,63.9,86.8c-9.6,14.2-43.5-27.6-90.9-59.6
					S566.5,76,576.1,61.8L576.1,61.8L576.1,61.8z"/>
				<path class="st4" d="M664.1,537.4H232.1v23.8c0,57.3,22.8,112.2,63.3,152.8s95.5,63.3,152.8,63.3l0,0c119.3,0,216-96.7,216-216
					V537.4L664.1,537.4L664.1,537.4z"/>
			</g>
		</g>
		<g>
			<defs>
				<path id="SVGID_00000065796844201955044930000011078391530232587961_" d="M664.1,537.4H232.1v23.8c0,57.3,22.8,112.2,63.3,152.8
					s95.5,63.3,152.8,63.3l0,0c119.3,0,216-96.7,216-216V537.4L664.1,537.4L664.1,537.4z"/>
			</defs>
			<defs>
				<path id="SVGID_00000081644429110427478290000012935255859158759327_" d="M448.6,0c247.6,0,448.6,201.4,448.6,449.4
					s-201,449.4-448.6,449.4S0,697.4,0,449.4S201,0,448.6,0L448.6,0z"/>
			</defs>
			<clipPath id="SVGID_00000149377585653147922670000014850481383513424798_">
				<use xlink:href="#SVGID_00000065796844201955044930000011078391530232587961_"  style="overflow:visible;"/>
			</clipPath>
			
				<clipPath id="SVGID_00000110430943628853852700000012979448565417913999_" style="clip-path:url(#SVGID_00000149377585653147922670000014850481383513424798_);">
				<use xlink:href="#SVGID_00000081644429110427478290000012935255859158759327_"  style="overflow:visible;"/>
			</clipPath>
			<g style="clip-path:url(#SVGID_00000110430943628853852700000012979448565417913999_);">
				<path class="st7" d="M447.7,638.3c87.9,0,159.3,59.7,159.3,133.2s-71.4,133.2-159.3,133.2S288.4,845,288.4,771.5
					S359.8,638.3,447.7,638.3L447.7,638.3z"/>
			</g>
		</g>
		<g>
			<defs>
				<path id="SVGID_00000135677208670011659600000015896199070104976783_" d="M448.6,0c247.6,0,448.6,201.4,448.6,449.4
					s-201,449.4-448.6,449.4S0,697.4,0,449.4S201,0,448.6,0L448.6,0z"/>
			</defs>
			<clipPath id="SVGID_00000085221888316616327320000008323916193352334223_">
				<use xlink:href="#SVGID_00000135677208670011659600000015896199070104976783_"  style="overflow:visible;"/>
			</clipPath>
			<g style="clip-path:url(#SVGID_00000085221888316616327320000008323916193352334223_);">
				<path class="st7" d="M602.3,334.9c66.9-81.4,107-61,117.1-31.2s-9.9,68.9-49.9,97.7c-29,22.1-80.1,33-120.1,37.2
					c-20.1-34.9-41.2-82.6-40.3-119.1c-0.1-49.3,19.8-88.4,49.9-97.7C588.9,212.5,629,232.9,602.3,334.9L602.3,334.9z M295.3,334.9
					c-66.9-81.4-107-61-117.1-31.2c-10.1,29.8,9.9,68.9,49.9,97.7c29,22.1,80.1,33,120.1,37.2c20.1-34.9,41.2-82.6,40.3-119.1
					c0.1-49.3-19.9-88.4-49.9-97.7C308.7,212.5,268.5,232.9,295.3,334.9L295.3,334.9L295.3,334.9z"/>
			</g>
		</g>
	</g>
</g>
</svg>
