<?xml version="1.0" encoding="utf-8"?>
<!-- Generator: Adobe Illustrator 27.5.0, SVG Export Plug-In . SVG Version: 6.00 Build 0)  -->
<svg version="1.1" id="Lag_2_00000099653366174873077010000012286748888039527809_"
	 xmlns="http://www.w3.org/2000/svg" xmlns:xlink="http://www.w3.org/1999/xlink" x="0px" y="0px" viewBox="0 0 897.1 898.8"
	 style="enable-background:new 0 0 897.1 898.8;" xml:space="preserve">
<style type="text/css">
	.st0{fill-rule:evenodd;clip-rule:evenodd;fill:#FFD255;}
	.st1{clip-path:url(#SVGID_00000009571908048638951420000014846196797114882706_);}
	.st2{fill-rule:evenodd;clip-rule:evenodd;fill:#D8AF3F;}
	.st3{fill-rule:evenodd;clip-rule:evenodd;fill:#FEE9AF;}
	.st4{fill-rule:evenodd;clip-rule:evenodd;}
</style>
<g id="Lag_1-2">
	<g>
		<path class="st0" d="M448.6,0c247.6,0,448.6,201.4,448.6,449.4s-201,449.4-448.6,449.4S0,697.4,0,449.4S201,0,448.6,0L448.6,0z"/>
		<g>
			<defs>
				<path id="SVGID_1_" d="M448.6,0c247.6,0,448.6,201.4,448.6,449.4s-201,449.4-448.6,449.4S0,697.4,0,449.4S201,0,448.6,0L448.6,0
					z"/>
			</defs>
			<clipPath id="SVGID_00000163782650228252346550000000857814573369001609_">
				<use xlink:href="#SVGID_1_"  style="overflow:visible;"/>
			</clipPath>
			<g style="clip-path:url(#SVGID_00000163782650228252346550000000857814573369001609_);">
				<path class="st2" d="M-13.5,417.4c0,0,172.1,685.2,820.6,337.6l-12.6,376.1L5,1105L-13.5,417.4L-13.5,417.4z"/>
				<path class="st3" d="M765.5,176.6c6.9,0,12.5,6.2,12.5,13.9s-5.6,13.9-12.5,13.9s-12.5-6.2-12.5-13.9S758.5,176.6,765.5,176.6
					L765.5,176.6z M576.1,61.8c9.6-14.2,57.7-7.3,105,24.7s73.5,72.5,63.9,86.8s-43.5-27.6-90.9-59.6S566.5,76,576.1,61.8
					L576.1,61.8L576.1,61.8z"/>
				<path class="st4" d="M546.3,380.7c0,0,7.6-20.3,20.8-35.3c7.9-8.9,17.8-16.2,29.6-14.2c14,2.4,29.5,16.5,47.3,50.3
					c1.7,3.1,5.6,4.4,8.7,2.7c3.2-1.7,4.4-5.6,2.7-8.7c-20.7-39.2-40.2-54.2-56.5-57c-16.4-2.8-30.6,6.1-41.5,18.4
					c-14.8,16.7-23.3,39.3-23.3,39.3c-1.2,3.3,0.5,7.1,3.8,8.3C541.3,385.7,545,384,546.3,380.7L546.3,380.7L546.3,380.7z
					 M256,380.7c0,0,7.6-20.3,20.9-35.3c7.9-8.9,17.8-16.2,29.6-14.2c14,2.4,29.5,16.5,47.3,50.3c1.7,3.1,5.6,4.4,8.7,2.7
					c3.1-1.7,4.4-5.6,2.7-8.7c-20.7-39.2-40.2-54.2-56.5-57c-16.4-2.8-30.6,6.1-41.5,18.4c-14.8,16.7-23.3,39.3-23.3,39.3
					c-1.2,3.3,0.5,7.1,3.8,8.3C251.1,385.7,254.8,384,256,380.7L256,380.7L256,380.7z"/>
				<path class="st4" d="M260.2,607.2c0,0,31.7,44.4,83,77.2c34.6,22.2,77.9,39,126.4,34c51.6-5.3,109.2-35.3,168.1-111
					c2.2-2.8,1.7-6.9-1.1-9.1c-2.8-2.2-6.9-1.7-9.1,1.1c-55.9,72-110.2,101.1-159.2,106.1c-45.4,4.7-85.9-11.3-118.2-32
					c-49.1-31.4-79.4-73.9-79.4-73.9c-2.1-2.9-6.1-3.6-9-1.5S258.2,604.3,260.2,607.2L260.2,607.2L260.2,607.2z"/>
			</g>
		</g>
	</g>
</g>
</svg>
