<?xml version="1.0" encoding="utf-8"?>
<!-- Generator: Adobe Illustrator 27.5.0, SVG Export Plug-In . SVG Version: 6.00 Build 0)  -->
<svg version="1.1" id="Lag_2_00000116212926367502760070000009897402522916518063_"
	 xmlns="http://www.w3.org/2000/svg" xmlns:xlink="http://www.w3.org/1999/xlink" x="0px" y="0px" viewBox="0 0 888.9 890.5"
	 style="enable-background:new 0 0 888.9 890.5;" xml:space="preserve">
<style type="text/css">
	.st0{fill-rule:evenodd;clip-rule:evenodd;fill:#FFD255;}
	.st1{clip-path:url(#SVGID_00000091732683400931985180000011994114314094810516_);}
	.st2{fill-rule:evenodd;clip-rule:evenodd;fill:#D8AF3F;}
	.st3{fill-rule:evenodd;clip-rule:evenodd;fill:#FEE9AF;}
	.st4{fill-rule:evenodd;clip-rule:evenodd;}
	.st5{clip-path:url(#SVGID_00000022539641622572452130000001780898783471249329_);}
	.st6{clip-path:url(#SVGID_00000070814640524286045570000002197133025203065514_);}
	.st7{fill-rule:evenodd;clip-rule:evenodd;fill:#FF676B;}
</style>
<g id="Lag_1-2">
	<g>
		<path class="st0" d="M444.4,0c245.3,0,444.4,199.5,444.4,445.3S689.7,890.5,444.4,890.5S0,691,0,445.3S199.1,0,444.4,0L444.4,0z"
			/>
		<g>
			<defs>
				<path id="SVGID_1_" d="M444.4,0c245.3,0,444.4,199.5,444.4,445.3S689.7,890.5,444.4,890.5S0,691,0,445.3S199.1,0,444.4,0
					L444.4,0z"/>
			</defs>
			<clipPath id="SVGID_00000036210454082024310170000003836881831528945029_">
				<use xlink:href="#SVGID_1_"  style="overflow:visible;"/>
			</clipPath>
			<g style="clip-path:url(#SVGID_00000036210454082024310170000003836881831528945029_);">
				<path class="st2" d="M-13.4,413.6c0,0,170.5,678.9,813,334.5l-12.5,372.6L5,1094.8L-13.4,413.6L-13.4,413.6z"/>
				<path class="st3" d="M758.4,175c6.8,0,12.4,6.2,12.4,13.8s-5.6,13.8-12.4,13.8s-12.4-6.2-12.4-13.8S751.6,175,758.4,175
					L758.4,175z M570.8,61.2c9.5-14.1,57.1-7.3,104.1,24.5s72.8,71.8,63.3,86c-9.5,14.1-43.1-27.4-90.1-59.1S561.2,75.3,570.8,61.2
					L570.8,61.2L570.8,61.2z"/>
				<path class="st4" d="M626.2,242.5c15,0,27.1,30.5,27.1,68.1s-12.1,68.1-27.1,68.1s-27.1-30.5-27.1-68.1S611.2,242.5,626.2,242.5
					L626.2,242.5z"/>
				<path class="st4" d="M263.7,242.5c15,0,27.1,30.5,27.1,68.1s-12.1,68.1-27.1,68.1s-27.1-30.5-27.1-68.1S248.8,242.5,263.7,242.5
					L263.7,242.5z"/>
				<path class="st4" d="M444.8,583.5c64.7,0,122.4,45.1,122.4,81.5s-57.7,50.4-122.4,50.4s-121.9-14-121.9-50.4
					S380.1,583.5,444.8,583.5L444.8,583.5z"/>
			</g>
		</g>
		<g>
			<defs>
				<path id="SVGID_00000041283332230053858810000013598572204403115172_" d="M444.8,583.5c64.7,0,122.4,45.1,122.4,81.5
					s-57.7,50.4-122.4,50.4s-121.9-14-121.9-50.4S380.1,583.5,444.8,583.5L444.8,583.5z"/>
			</defs>
			<defs>
				<path id="SVGID_00000069362837799858947140000016101427148238026911_" d="M444.4,0c245.3,0,444.4,199.5,444.4,445.3
					S689.7,890.5,444.4,890.5S0,691,0,445.3S199.1,0,444.4,0L444.4,0z"/>
			</defs>
			<clipPath id="SVGID_00000126301882832788092620000012219566324004619707_">
				<use xlink:href="#SVGID_00000041283332230053858810000013598572204403115172_"  style="overflow:visible;"/>
			</clipPath>
			
				<clipPath id="SVGID_00000119077622257588600660000002528495770932179879_" style="clip-path:url(#SVGID_00000126301882832788092620000012219566324004619707_);">
				<use xlink:href="#SVGID_00000069362837799858947140000016101427148238026911_"  style="overflow:visible;"/>
			</clipPath>
			<g style="clip-path:url(#SVGID_00000119077622257588600660000002528495770932179879_);">
				<path class="st7" d="M444.9,659.6c63.7,0,115.4,30.6,115.4,68.3s-51.7,68.3-115.4,68.3s-115.4-30.6-115.4-68.3
					S381.2,659.6,444.9,659.6L444.9,659.6z"/>
			</g>
		</g>
	</g>
</g>
</svg>
