<?xml version="1.0" encoding="UTF-8"?>
<svg id="Lag_2" data-name="Lag 2" xmlns="http://www.w3.org/2000/svg" xmlns:xlink="http://www.w3.org/1999/xlink" viewBox="0 0 902.24 1120.66">
  <defs>
    <style>
      .cls-1 {
        fill: #40b7cd;
      }

      .cls-1, .cls-2, .cls-3, .cls-4, .cls-5 {
        fill-rule: evenodd;
      }

      .cls-2 {
        fill: #fee9af;
      }

      .cls-3 {
        fill: #d8af3f;
      }

      .cls-4 {
        fill: #ffd255;
      }

      .cls-6 {
        clip-path: url(#clippath);
      }

      .cls-7 {
        clip-rule: evenodd;
        fill: none;
      }
    </style>
    <clipPath id="clippath">
      <path class="cls-7" d="m457.81,0c245.29,0,444.43,199.52,444.43,445.26s-199.14,445.26-444.43,445.26S13.38,691.01,13.38,445.26,212.52,0,457.81,0h0Z"/>
    </clipPath>
  </defs>
  <g id="Lag_1-2" data-name="Lag 1">
    <g>
      <path class="cls-4" d="m457.81,0c245.29,0,444.43,199.52,444.43,445.26s-199.14,445.26-444.43,445.26S13.38,691.01,13.38,445.26,212.52,0,457.81,0h0Z"/>
      <g class="cls-6">
        <path class="cls-3" d="m0,413.56s170.52,678.86,813.04,334.49l-12.45,372.61-782.25-25.86L0,413.56h0Z"/>
        <path class="cls-2" d="m771.79,175.01c6.85,0,12.4,6.18,12.4,13.78s-5.56,13.79-12.4,13.79-12.4-6.18-12.4-13.79,5.56-13.78,12.4-13.78h0Zm-187.63-113.81c9.53-14.11,57.13-7.26,104.08,24.46,46.95,31.72,72.85,71.85,63.32,85.95-9.53,14.11-43.11-27.37-90.06-59.08-46.95-31.72-86.88-37.22-77.35-51.33h0Z"/>
        <path class="cls-5" d="m639.57,242.5c14.95,0,27.09,30.51,27.09,68.09s-12.14,68.09-27.09,68.09-27.09-30.51-27.09-68.09,12.14-68.09,27.09-68.09h0Z"/>
        <path class="cls-5" d="m277.09,242.5c14.95,0,27.09,30.51,27.09,68.09s-12.14,68.09-27.09,68.09-27.09-30.51-27.09-68.09,12.14-68.09,27.09-68.09h0Z"/>
        <path class="cls-5" d="m286.6,662.24s27.22-45.29,73.04-78.82c30.07-22,68.24-39,112.08-34.05,47.61,5.38,101.48,36.53,159.06,113.4,2.11,2.82,6.13,3.4,8.95,1.28,2.82-2.12,3.4-6.13,1.28-8.95-60.55-80.85-117.79-112.79-167.86-118.45-47.32-5.35-88.61,12.69-121.07,36.44-47.97,35.1-76.45,82.55-76.45,82.55-1.82,3.03-.84,6.96,2.19,8.78,3.03,1.82,6.96.84,8.77-2.19h0Z"/>
        <path class="cls-1" d="m272.25,392.17s-38.22,92.28-38.22,131.84c0,21.09,17.13,38.22,38.22,38.22s38.22-17.13,38.22-38.22c0-39.55-38.22-131.84-38.22-131.84h0Z"/>
      </g>
    </g>
  </g>
</svg>