<?xml version="1.0" encoding="utf-8"?>
<!-- Generator: Adobe Illustrator 27.5.0, SVG Export Plug-In . SVG Version: 6.00 Build 0)  -->
<svg version="1.1" id="Lag_2_00000072270989698141344540000003714037890897120185_"
	 xmlns="http://www.w3.org/2000/svg" xmlns:xlink="http://www.w3.org/1999/xlink" x="0px" y="0px" viewBox="0 0 888.9 890.5"
	 style="enable-background:new 0 0 888.9 890.5;" xml:space="preserve">
<style type="text/css">
	.st0{fill-rule:evenodd;clip-rule:evenodd;fill:#FFD255;}
	.st1{clip-path:url(#SVGID_00000029030059665991988230000014751947810143930016_);}
	.st2{fill-rule:evenodd;clip-rule:evenodd;fill:#D8AF3F;}
	.st3{fill-rule:evenodd;clip-rule:evenodd;fill:#40B7CD;}
	.st4{fill-rule:evenodd;clip-rule:evenodd;}
</style>
<g id="Lag_1-2">
	<g>
		<path class="st0" d="M444.4,0c245.3,0,444.4,199.5,444.4,445.3S689.7,890.5,444.4,890.5S0,691,0,445.3S199.1,0,444.4,0L444.4,0z"
			/>
		<g>
			<defs>
				<path id="SVGID_1_" d="M444.4,0c245.3,0,444.4,199.5,444.4,445.3S689.7,890.5,444.4,890.5S0,691,0,445.3S199.1,0,444.4,0
					L444.4,0z"/>
			</defs>
			<clipPath id="SVGID_00000039829173114987664510000002610222099555834803_">
				<use xlink:href="#SVGID_1_"  style="overflow:visible;"/>
			</clipPath>
			<g style="clip-path:url(#SVGID_00000039829173114987664510000002610222099555834803_);">
				<path class="st2" d="M-13.4,413.6c0,0,170.5,678.9,813,334.5l-12.5,372.6L5,1094.8L-13.4,413.6L-13.4,413.6z"/>
				<path class="st3" d="M530,645c-1.4,9.7-2.7,19.3-2.5,29.1c0.1,7.5,0.5,15,1.8,22.4c0.8,4.5,1.9,9.1,3,13.5
					c3.1,12.2,13.6,21.8,23,8c5.8-8.5,5.6-20.3,9.1-29.8c1.8-4.8,4.5-11.2,10.5-6.6c6.9,5.4,7.7,15,7.5,23.1
					c-0.3,16.1-4.3,33.4-0.3,49.3c1.4,5.9,3,13.9,8.6,17.4c4.5,2.9,10.1-0.4,13.2-3.8c7.9-8.8,10-21.2,11.1-32.5
					c4.2-43-0.2-84.9-5.3-127.4"/>
				<path class="st4" d="M524.2,364.4c0,0,75.1-52.3,162.7,0.2c3,1.8,7,0.8,8.8-2.2c1.8-3,0.8-7-2.2-8.8c-95-57-176.6,0.2-176.6,0.2
					c-2.9,2-3.6,6-1.6,8.9C517.3,365.7,521.3,366.4,524.2,364.4L524.2,364.4L524.2,364.4z M200.2,364.4c0,0,75.1-52.3,162.6,0.2
					c3,1.8,7,0.8,8.8-2.2c1.8-3,0.8-7-2.2-8.8c-95-57-176.6,0.2-176.6,0.2c-2.9,2-3.6,6-1.6,8.9
					C193.3,365.7,197.3,366.4,200.2,364.4L200.2,364.4L200.2,364.4z"/>
				<path class="st4" d="M280.9,612.4c0,0,148.9,120.8,327.2,0.3c2.9-2,3.7-6,1.7-8.9c-2-2.9-6-3.7-8.9-1.7
					c-170,114.9-312,0.3-312,0.3c-2.7-2.2-6.8-1.8-9,1C277.7,606.1,278.1,610.2,280.9,612.4L280.9,612.4L280.9,612.4z"/>
			</g>
		</g>
	</g>
</g>
</svg>
