<?xml version="1.0" encoding="utf-8"?>
<!-- Generator: Adobe Illustrator 27.5.0, SVG Export Plug-In . SVG Version: 6.00 Build 0)  -->
<svg version="1.1" id="Lag_2_00000000209431447503601530000012738076598882942641_"
	 xmlns="http://www.w3.org/2000/svg" xmlns:xlink="http://www.w3.org/1999/xlink" x="0px" y="0px" viewBox="0 0 910.9 912.6"
	 style="enable-background:new 0 0 910.9 912.6;" xml:space="preserve">
<style type="text/css">
	.st0{fill-rule:evenodd;clip-rule:evenodd;fill:#FFD255;}
	.st1{clip-path:url(#SVGID_00000129891681267829465550000007993494601388915372_);}
	.st2{fill-rule:evenodd;clip-rule:evenodd;fill:#D8AF3F;}
	.st3{fill-rule:evenodd;clip-rule:evenodd;fill:#FEE9AF;}
	.st4{fill-rule:evenodd;clip-rule:evenodd;}
	.st5{fill-rule:evenodd;clip-rule:evenodd;fill:#FF676B;}
</style>
<g id="Lag_1-2">
	<g>
		<path class="st0" d="M455.4,0c251.4,0,455.4,204.5,455.4,456.3S706.8,912.6,455.4,912.6S0,708.1,0,456.3S204.1,0,455.4,0L455.4,0z
			"/>
		<g>
			<defs>
				<path id="SVGID_1_" d="M455.4,0c251.4,0,455.4,204.5,455.4,456.3S706.8,912.6,455.4,912.6S0,708.1,0,456.3S204.1,0,455.4,0
					L455.4,0z"/>
			</defs>
			<clipPath id="SVGID_00000057852542883487302500000003167109697098463896_">
				<use xlink:href="#SVGID_1_"  style="overflow:visible;"/>
			</clipPath>
			<g style="clip-path:url(#SVGID_00000057852542883487302500000003167109697098463896_);">
				<path class="st2" d="M-13.7,423.8c0,0,174.7,695.7,833.2,342.8l-12.8,381.8L5.1,1121.9L-13.7,423.8L-13.7,423.8z"/>
				<path class="st3" d="M777.2,179.3c7,0,12.7,6.3,12.7,14.1s-5.7,14.1-12.7,14.1s-12.7-6.3-12.7-14.1S770.2,179.3,777.2,179.3
					L777.2,179.3z"/>
				<path class="st3" d="M584.9,62.7c9.8-14.5,58.5-7.4,106.7,25.1c48.1,32.5,74.7,73.6,64.9,88.1c-9.8,14.5-44.2-28.1-92.3-60.6
					S575.2,77.2,584.9,62.7L584.9,62.7L584.9,62.7z"/>
				<path class="st4" d="M674.3,545.6H235.6c0,116,94.1,210.1,210.1,210.1h18.4C580.2,755.7,674.3,661.7,674.3,545.6L674.3,545.6
					L674.3,545.6z"/>
				<path class="st5" d="M557.5,580.8H353.8V718c0,56.2,45.6,101.8,101.8,101.8l0,0c56.2,0,101.8-45.6,101.8-101.8L557.5,580.8
					L557.5,580.8L557.5,580.8z"/>
				<path class="st4" d="M203.4,276.9l143.1,52.2l-143.1,53.4c-3.4,1.3-5.1,5-3.9,8.4s5,5.1,8.4,3.9l159.7-59.5
					c2.6-1,4.3-3.4,4.3-6.2c0-2.7-1.7-5.2-4.3-6.1l-159.7-58.3c-3.4-1.2-7.2,0.5-8.4,3.9C198.3,271.9,200,275.7,203.4,276.9
					L203.4,276.9L203.4,276.9z M703.8,264.6l-159.7,58.3c-2.6,0.9-4.3,3.4-4.3,6.1c0,2.7,1.7,5.2,4.3,6.2l159.7,59.5
					c3.4,1.3,7.2-0.5,8.4-3.9s-0.5-7.2-3.8-8.4l-143.1-53.4l143-52.2c3.4-1.2,5.2-5,3.9-8.4C711,265.1,707.2,263.4,703.8,264.6
					L703.8,264.6L703.8,264.6z"/>
			</g>
		</g>
	</g>
</g>
</svg>
