<?xml version="1.0" encoding="utf-8"?>
<!-- Generator: Adobe Illustrator 27.5.0, SVG Export Plug-In . SVG Version: 6.00 Build 0)  -->
<svg version="1.1" id="Lag_2_00000095319592805379115100000013563702922243373758_"
	 xmlns="http://www.w3.org/2000/svg" xmlns:xlink="http://www.w3.org/1999/xlink" x="0px" y="0px" viewBox="0 0 869 870.7"
	 style="enable-background:new 0 0 869 870.7;" xml:space="preserve">
<style type="text/css">
	.st0{fill-rule:evenodd;clip-rule:evenodd;fill:#FFD255;}
	.st1{clip-path:url(#SVGID_00000118372406341759136820000011042979130618273435_);}
	.st2{fill-rule:evenodd;clip-rule:evenodd;fill:#D8AF3F;}
	.st3{fill-rule:evenodd;clip-rule:evenodd;fill:#FEE9AF;}
	.st4{fill-rule:evenodd;clip-rule:evenodd;}
</style>
<g id="Lag_1-2">
	<g>
		<path class="st0" d="M434.5,0C674.3,0,869,195.1,869,435.3S674.3,870.7,434.5,870.7S0,675.6,0,435.3S194.7,0,434.5,0L434.5,0z"/>
		<g>
			<defs>
				<path id="SVGID_1_" d="M434.5,0C674.3,0,869,195.1,869,435.3S674.3,870.7,434.5,870.7S0,675.6,0,435.3S194.7,0,434.5,0L434.5,0z
					"/>
			</defs>
			<clipPath id="SVGID_00000145053283367235410590000008795855660828719518_">
				<use xlink:href="#SVGID_1_"  style="overflow:visible;"/>
			</clipPath>
			<g style="clip-path:url(#SVGID_00000145053283367235410590000008795855660828719518_);">
				<path class="st2" d="M-13.1,404.3c0,0,166.7,663.7,794.9,327l-12.2,364.3L4.8,1070.4L-13.1,404.3L-13.1,404.3z"/>
				<path class="st3" d="M741.5,171.1c6.7,0,12.1,6,12.1,13.5s-5.4,13.5-12.1,13.5s-12.1-6-12.1-13.5S734.8,171.1,741.5,171.1
					L741.5,171.1z M558.1,59.8c9.3-13.8,55.9-7.1,101.8,23.9s71.2,70.3,61.9,84s-42.2-26.8-88-57.8C587.8,79,548.7,73.6,558.1,59.8
					C558.1,59.8,558.1,59.8,558.1,59.8z"/>
				<path class="st4" d="M323.9,659.4c0,0,49-53.9,119.9-48.5c30.6,2.3,65.2,15.8,101.7,49c2.5,2.3,6.5,2.1,8.8-0.4s2.1-6.5-0.4-8.8
					c-39.2-35.6-76.4-49.7-109.1-52.2c-76.9-5.8-130.1,52.6-130.1,52.6c-2.3,2.5-2.1,6.5,0.4,8.8
					C317.6,662.1,321.6,661.9,323.9,659.4L323.9,659.4L323.9,659.4z"/>
				<path class="st4" d="M489.1,325.6c14.6,0,26.5,29.8,26.5,66.6s-11.9,66.6-26.5,66.6s-26.5-29.8-26.5-66.6
					S474.5,325.6,489.1,325.6L489.1,325.6z M363.6,325.6c14.6,0,26.5,29.8,26.5,66.6s-11.9,66.6-26.5,66.6s-26.5-29.8-26.5-66.6
					S348.9,325.6,363.6,325.6L363.6,325.6z"/>
				<path class="st4" d="M460.2,314.8L640,263.5c3.3-1,5.2-4.4,4.3-7.7c-1-3.3-4.4-5.2-7.7-4.3l-179.8,51.4c-3.3,1-5.2,4.4-4.3,7.7
					C453.5,313.9,456.9,315.8,460.2,314.8L460.2,314.8L460.2,314.8z M395.9,302.8l-179.8-51.4c-3.3-0.9-6.8,1-7.7,4.3
					c-0.9,3.3,1,6.8,4.3,7.7l179.8,51.4c3.3,1,6.8-1,7.7-4.3S399.2,303.8,395.9,302.8L395.9,302.8L395.9,302.8z"/>
			</g>
		</g>
	</g>
</g>
</svg>
