<?xml version="1.0" encoding="utf-8"?>
<!-- Generator: Adobe Illustrator 27.5.0, SVG Export Plug-In . SVG Version: 6.00 Build 0)  -->
<svg version="1.1" id="Lag_2_00000019675695540046476360000009291502588948898436_"
	 xmlns="http://www.w3.org/2000/svg" xmlns:xlink="http://www.w3.org/1999/xlink" x="0px" y="0px" viewBox="0 0 897.1 898.8"
	 style="enable-background:new 0 0 897.1 898.8;" xml:space="preserve">
<style type="text/css">
	.st0{fill-rule:evenodd;clip-rule:evenodd;fill:#FFD255;}
	.st1{clip-path:url(#SVGID_00000070829679710503662360000017229346639591391932_);}
	.st2{fill-rule:evenodd;clip-rule:evenodd;fill:#D8AF3F;}
	.st3{fill-rule:evenodd;clip-rule:evenodd;fill:#FEE9AF;}
	.st4{fill-rule:evenodd;clip-rule:evenodd;}
	.st5{clip-path:url(#SVGID_00000013192972585293754910000002934922503143412375_);}
	.st6{clip-path:url(#SVGID_00000092436109135066607330000010697772122618274970_);}
	.st7{fill-rule:evenodd;clip-rule:evenodd;fill:#FF676B;}
	.st8{clip-path:url(#SVGID_00000083055527931704379870000002815110000763078539_);}
</style>
<g id="Lag_1-2">
	<g>
		<path class="st0" d="M448.6,0c247.6,0,448.6,201.4,448.6,449.4s-201,449.4-448.6,449.4S0,697.4,0,449.4S201,0,448.6,0L448.6,0z"/>
		<g>
			<defs>
				<path id="SVGID_1_" d="M448.6,0c247.6,0,448.6,201.4,448.6,449.4s-201,449.4-448.6,449.4S0,697.4,0,449.4S201,0,448.6,0L448.6,0
					z"/>
			</defs>
			<clipPath id="SVGID_00000002354508252772589600000000727695150972374406_">
				<use xlink:href="#SVGID_1_"  style="overflow:visible;"/>
			</clipPath>
			<g style="clip-path:url(#SVGID_00000002354508252772589600000000727695150972374406_);">
				<path class="st2" d="M-13.5,417.4c0,0,172.1,685.2,820.6,337.6l-12.6,376.1L5,1105L-13.5,417.4L-13.5,417.4z"/>
				<path class="st3" d="M765.5,176.6c6.9,0,12.5,6.2,12.5,13.9s-5.6,13.9-12.5,13.9s-12.5-6.2-12.5-13.9S758.5,176.6,765.5,176.6
					L765.5,176.6z"/>
				<path class="st3" d="M576.1,61.8c9.6-14.2,57.7-7.3,105,24.7s73.5,72.5,63.9,86.8c-9.6,14.2-43.5-27.6-90.9-59.6
					S566.5,76,576.1,61.8L576.1,61.8L576.1,61.8z"/>
				<path class="st4" d="M664.1,537.4H232.1v23.8c0,57.3,22.8,112.2,63.3,152.8c40.5,40.5,95.5,63.3,152.8,63.3l0,0
					c119.3,0,216-96.7,216-216L664.1,537.4L664.1,537.4L664.1,537.4z"/>
			</g>
		</g>
		<g>
			<defs>
				<path id="SVGID_00000070823444485757613550000017732944565242969735_" d="M664.1,537.4H232.1v23.8c0,57.3,22.8,112.2,63.3,152.8
					c40.5,40.5,95.5,63.3,152.8,63.3l0,0c119.3,0,216-96.7,216-216L664.1,537.4L664.1,537.4L664.1,537.4z"/>
			</defs>
			<defs>
				<path id="SVGID_00000044154540579171595030000010052211392451185581_" d="M448.6,0c247.6,0,448.6,201.4,448.6,449.4
					s-201,449.4-448.6,449.4S0,697.4,0,449.4S201,0,448.6,0L448.6,0z"/>
			</defs>
			<clipPath id="SVGID_00000096016869122917016350000015034913877550133632_">
				<use xlink:href="#SVGID_00000070823444485757613550000017732944565242969735_"  style="overflow:visible;"/>
			</clipPath>
			
				<clipPath id="SVGID_00000141426992410573116660000012599534366179143298_" style="clip-path:url(#SVGID_00000096016869122917016350000015034913877550133632_);">
				<use xlink:href="#SVGID_00000044154540579171595030000010052211392451185581_"  style="overflow:visible;"/>
			</clipPath>
			<g style="clip-path:url(#SVGID_00000141426992410573116660000012599534366179143298_);">
				<path class="st7" d="M447.7,638.3c87.9,0,159.3,59.7,159.3,133.2s-71.4,133.2-159.3,133.2S288.4,845,288.4,771.5
					S359.8,638.3,447.7,638.3L447.7,638.3z"/>
			</g>
		</g>
		<g>
			<defs>
				<path id="SVGID_00000081645998857896973580000016822787798269906867_" d="M448.6,0c247.6,0,448.6,201.4,448.6,449.4
					s-201,449.4-448.6,449.4S0,697.4,0,449.4S201,0,448.6,0L448.6,0z"/>
			</defs>
			<clipPath id="SVGID_00000110456064383877457250000003235535824104842136_">
				<use xlink:href="#SVGID_00000081645998857896973580000016822787798269906867_"  style="overflow:visible;"/>
			</clipPath>
			<g style="clip-path:url(#SVGID_00000110456064383877457250000003235535824104842136_);">
				<path class="st4" d="M198.4,284.6L339.2,336l-140.9,52.5c-3.3,1.2-5,5-3.8,8.3c1.2,3.3,5,5,8.3,3.8L360.2,342
					c2.5-0.9,4.2-3.4,4.2-6.1c0-2.7-1.7-5.1-4.2-6l-157.3-57.4c-3.4-1.2-7.1,0.5-8.3,3.9C193.3,279.7,195,283.4,198.4,284.6
					L198.4,284.6L198.4,284.6z M691.2,272.5l-157.3,57.4c-2.5,0.9-4.2,3.3-4.2,6s1.7,5.1,4.2,6.1l157.3,58.6
					c3.3,1.2,7.1-0.5,8.3-3.8s-0.5-7.1-3.8-8.3L554.8,336l140.9-51.4c3.3-1.2,5.1-4.9,3.8-8.3C698.3,273,694.6,271.3,691.2,272.5
					L691.2,272.5z"/>
			</g>
		</g>
	</g>
</g>
</svg>
