<?xml version="1.0" encoding="utf-8"?>
<!-- Generator: Adobe Illustrator 27.5.0, SVG Export Plug-In . SVG Version: 6.00 Build 0)  -->
<svg version="1.1" id="Lag_2_00000163056805927422755650000014335185636239590590_"
	 xmlns="http://www.w3.org/2000/svg" xmlns:xlink="http://www.w3.org/1999/xlink" x="0px" y="0px" viewBox="0 0 910.9 912.6"
	 style="enable-background:new 0 0 910.9 912.6;" xml:space="preserve">
<style type="text/css">
	.st0{fill-rule:evenodd;clip-rule:evenodd;fill:#FFD255;}
	.st1{clip-path:url(#SVGID_00000125599026432091592910000010352861832796102062_);}
	.st2{fill-rule:evenodd;clip-rule:evenodd;fill:#D8AF3F;}
	.st3{fill-rule:evenodd;clip-rule:evenodd;}
	.st4{clip-path:url(#SVGID_00000079484025658080264260000005629128929696581511_);}
	.st5{clip-path:url(#SVGID_00000018234167192875365790000014803649376776373132_);}
	.st6{fill-rule:evenodd;clip-rule:evenodd;fill:#FF676B;}
	.st7{clip-path:url(#SVGID_00000168103689956925184770000007395042960919314848_);}
	.st8{fill-rule:evenodd;clip-rule:evenodd;fill:#40B7CD;}
</style>
<g id="Lag_1-2">
	<g>
		<path class="st0" d="M455.4,0c251.4,0,455.4,204.5,455.4,456.3S706.8,912.6,455.4,912.6S0,708.1,0,456.3S204.1,0,455.4,0L455.4,0z
			"/>
		<g>
			<defs>
				<path id="SVGID_1_" d="M455.4,0c251.4,0,455.4,204.5,455.4,456.3S706.8,912.6,455.4,912.6S0,708.1,0,456.3S204.1,0,455.4,0
					L455.4,0z"/>
			</defs>
			<clipPath id="SVGID_00000178900822096503552920000008844626007497957263_">
				<use xlink:href="#SVGID_1_"  style="overflow:visible;"/>
			</clipPath>
			<g style="clip-path:url(#SVGID_00000178900822096503552920000008844626007497957263_);">
				<path class="st2" d="M-13.7,423.8c0,0,174.7,695.7,833.2,342.8l-12.8,381.8L5.1,1121.9L-13.7,423.8L-13.7,423.8z"/>
				<path class="st3" d="M674.3,545.6H235.6v24.1c0,121.1,98.2,219.3,219.3,219.3l0,0c121.1,0,219.3-98.2,219.3-219.3L674.3,545.6
					L674.3,545.6L674.3,545.6z"/>
			</g>
		</g>
		<g>
			<defs>
				<path id="SVGID_00000060019762465326434610000011018812906651169947_" d="M674.3,545.6H235.6v24.1
					c0,121.1,98.2,219.3,219.3,219.3l0,0c121.1,0,219.3-98.2,219.3-219.3L674.3,545.6L674.3,545.6L674.3,545.6z"/>
			</defs>
			<defs>
				<path id="SVGID_00000105404777436828521090000010758760369670248870_" d="M455.4,0c251.4,0,455.4,204.5,455.4,456.3
					S706.8,912.6,455.4,912.6S0,708.1,0,456.3S204.1,0,455.4,0L455.4,0z"/>
			</defs>
			<clipPath id="SVGID_00000016035687799132872000000008677178895343520135_">
				<use xlink:href="#SVGID_00000060019762465326434610000011018812906651169947_"  style="overflow:visible;"/>
			</clipPath>
			
				<clipPath id="SVGID_00000077316532716210940880000015571865835870846635_" style="clip-path:url(#SVGID_00000016035687799132872000000008677178895343520135_);">
				<use xlink:href="#SVGID_00000105404777436828521090000010758760369670248870_"  style="overflow:visible;"/>
			</clipPath>
			<g style="clip-path:url(#SVGID_00000077316532716210940880000015571865835870846635_);">
				<path class="st6" d="M454.6,648.1c89.3,0,161.8,60.6,161.8,135.2s-72.5,135.2-161.8,135.2S292.9,858,292.9,783.3
					S365.3,648.1,454.6,648.1L454.6,648.1z"/>
			</g>
		</g>
		<g>
			<defs>
				<path id="SVGID_00000092440821267869630150000017626322288951984568_" d="M455.4,0c251.4,0,455.4,204.5,455.4,456.3
					S706.8,912.6,455.4,912.6S0,708.1,0,456.3S204.1,0,455.4,0L455.4,0z"/>
			</defs>
			<clipPath id="SVGID_00000153678449009385825130000006251055678982026679_">
				<use xlink:href="#SVGID_00000092440821267869630150000017626322288951984568_"  style="overflow:visible;"/>
			</clipPath>
			<g style="clip-path:url(#SVGID_00000153678449009385825130000006251055678982026679_);">
				<path class="st3" d="M537.2,373.4c0,0,77-53.6,166.7,0.2c3.1,1.9,7.1,0.9,9-2.2s0.8-7.1-2.2-9c-97.4-58.4-180.9,0.2-180.9,0.2
					c-3,2.1-3.7,6.2-1.6,9.1C530.1,374.8,534.2,375.5,537.2,373.4L537.2,373.4L537.2,373.4z M205.1,373.4c0,0,77-53.6,166.7,0.2
					c3.1,1.9,7.1,0.9,9-2.2s0.9-7.1-2.2-9c-97.4-58.4-180.9,0.2-180.9,0.2c-3,2.1-3.7,6.2-1.6,9.1
					C198.1,374.8,202.2,375.5,205.1,373.4L205.1,373.4L205.1,373.4z"/>
				<path class="st8" d="M695.5,401.5c0,0,22.2,93.6,44.6,124.2c12.2,16.6,35.5,20.3,52.2,8.1c16.6-12.2,20.3-35.5,8.1-52.1
					C777.9,451,695.5,401.5,695.5,401.5L695.5,401.5L695.5,401.5z"/>
				<path class="st8" d="M215.4,401.5c0,0-22.2,93.6-44.6,124.2c-12.2,16.6-35.5,20.3-52.1,8.1c-16.6-12.2-20.3-35.5-8.1-52.1
					C132.9,451,215.4,401.5,215.4,401.5L215.4,401.5L215.4,401.5z"/>
			</g>
		</g>
	</g>
</g>
</svg>
