<?xml version="1.0" encoding="utf-8"?>
<!-- Generator: Adobe Illustrator 27.5.0, SVG Export Plug-In . SVG Version: 6.00 Build 0)  -->
<svg version="1.1" id="Lag_2_00000116956261888599164360000013577009483475927176_"
	 xmlns="http://www.w3.org/2000/svg" xmlns:xlink="http://www.w3.org/1999/xlink" x="0px" y="0px" viewBox="0 0 910.9 912.6"
	 style="enable-background:new 0 0 910.9 912.6;" xml:space="preserve">
<style type="text/css">
	.st0{fill-rule:evenodd;clip-rule:evenodd;fill:#FFD255;}
	.st1{clip-path:url(#SVGID_00000170246042301318408620000014899112053924930463_);}
	.st2{fill-rule:evenodd;clip-rule:evenodd;fill:#D8AF3F;}
	.st3{fill-rule:evenodd;clip-rule:evenodd;}
	.st4{clip-path:url(#SVGID_00000112625425340112672190000010560054790720396975_);}
	.st5{clip-path:url(#SVGID_00000023241608504715572860000008634461405123635104_);}
	.st6{fill-rule:evenodd;clip-rule:evenodd;fill:#FF676B;}
	.st7{clip-path:url(#SVGID_00000176035138805453721560000003089374879157838983_);}
	.st8{fill-rule:evenodd;clip-rule:evenodd;fill:#40B7CD;}
</style>
<g id="Lag_1-2">
	<g>
		<path class="st0" d="M455.4,0c251.4,0,455.4,204.5,455.4,456.3S706.8,912.6,455.4,912.6S0,708.1,0,456.3S204.1,0,455.4,0L455.4,0z
			"/>
		<g>
			<defs>
				<path id="SVGID_1_" d="M455.4,0c251.4,0,455.4,204.5,455.4,456.3S706.8,912.6,455.4,912.6S0,708.1,0,456.3S204.1,0,455.4,0
					L455.4,0z"/>
			</defs>
			<clipPath id="SVGID_00000025424512181659484630000008036453691954055298_">
				<use xlink:href="#SVGID_1_"  style="overflow:visible;"/>
			</clipPath>
			<g style="clip-path:url(#SVGID_00000025424512181659484630000008036453691954055298_);">
				<path class="st2" d="M-13.7,423.8c0,0,174.7,695.7,833.2,342.8l-12.8,381.8L5.1,1121.9L-13.7,423.8L-13.7,423.8z"/>
				<path class="st3" d="M674.3,545.6H235.6v24.1c0,121.1,98.2,219.3,219.3,219.3l0,0c121.1,0,219.3-98.2,219.3-219.3L674.3,545.6
					L674.3,545.6L674.3,545.6z"/>
			</g>
		</g>
		<g>
			<defs>
				<path id="SVGID_00000124135456674665595490000002122049075745547692_" d="M674.3,545.6H235.6v24.1
					c0,121.1,98.2,219.3,219.3,219.3l0,0c121.1,0,219.3-98.2,219.3-219.3L674.3,545.6L674.3,545.6L674.3,545.6z"/>
			</defs>
			<defs>
				<path id="SVGID_00000134939381864799931680000000991218592409317019_" d="M455.4,0c251.4,0,455.4,204.5,455.4,456.3
					S706.8,912.6,455.4,912.6S0,708.1,0,456.3S204.1,0,455.4,0L455.4,0z"/>
			</defs>
			<clipPath id="SVGID_00000144300021636575950920000003187206977667700895_">
				<use xlink:href="#SVGID_00000124135456674665595490000002122049075745547692_"  style="overflow:visible;"/>
			</clipPath>
			
				<clipPath id="SVGID_00000097491053669869221000000002688083361974492809_" style="clip-path:url(#SVGID_00000144300021636575950920000003187206977667700895_);">
				<use xlink:href="#SVGID_00000134939381864799931680000000991218592409317019_"  style="overflow:visible;"/>
			</clipPath>
			<g style="clip-path:url(#SVGID_00000097491053669869221000000002688083361974492809_);">
				<path class="st6" d="M454.6,648.1c89.3,0,161.8,60.6,161.8,135.2s-72.5,135.2-161.8,135.2S292.9,858,292.9,783.3
					S365.3,648.1,454.6,648.1L454.6,648.1z"/>
			</g>
		</g>
		<g>
			<defs>
				<path id="SVGID_00000109751251276485289320000014733320223035439024_" d="M455.4,0c251.4,0,455.4,204.5,455.4,456.3
					S706.8,912.6,455.4,912.6S0,708.1,0,456.3S204.1,0,455.4,0L455.4,0z"/>
			</defs>
			<clipPath id="SVGID_00000110446961720513570280000013011620872877935244_">
				<use xlink:href="#SVGID_00000109751251276485289320000014733320223035439024_"  style="overflow:visible;"/>
			</clipPath>
			<g style="clip-path:url(#SVGID_00000110446961720513570280000013011620872877935244_);">
				<path class="st3" d="M554.6,386.5c0,0,7.7-20.6,21.2-35.8c8-9,18-16.5,30.1-14.4c14.2,2.4,30,16.8,48,51
					c1.7,3.2,5.7,4.4,8.8,2.7c3.2-1.7,4.4-5.6,2.7-8.9c-21-39.8-40.9-55-57.4-57.8c-16.6-2.8-31.1,6.2-42.1,18.7
					c-15,17-23.6,39.9-23.6,39.9c-1.3,3.4,0.5,7.2,3.8,8.4C549.6,391.6,553.4,389.9,554.6,386.5L554.6,386.5L554.6,386.5z
					 M260,386.5c0,0,7.7-20.6,21.2-35.8c8-9,18-16.5,30.1-14.4c14.2,2.4,30,16.8,48,51c1.7,3.2,5.6,4.4,8.9,2.7s4.4-5.6,2.7-8.9
					c-21-39.8-40.9-55-57.4-57.8c-16.6-2.8-31.1,6.2-42.1,18.7c-15,17-23.6,39.9-23.6,39.9c-1.3,3.4,0.5,7.2,3.8,8.4
					C254.9,391.6,258.7,389.9,260,386.5L260,386.5L260,386.5z"/>
			</g>
		</g>
		<path class="st8" d="M160.5,28.6c0,0-48.2,138.7-48.2,198.2c0,26.6,21.6,48.2,48.2,48.2s48.2-21.6,48.2-48.2
			C208.7,167.4,160.5,28.6,160.5,28.6C160.5,28.6,160.5,28.6,160.5,28.6z"/>
	</g>
</g>
</svg>
