<?xml version="1.0" encoding="utf-8"?>
<!-- Generator: Adobe Illustrator 27.5.0, SVG Export Plug-In . SVG Version: 6.00 Build 0)  -->
<svg version="1.1" id="Lag_2_00000014607209351602937810000011946731550162075542_"
	 xmlns="http://www.w3.org/2000/svg" xmlns:xlink="http://www.w3.org/1999/xlink" x="0px" y="0px" viewBox="0 0 888.9 890.5"
	 style="enable-background:new 0 0 888.9 890.5;" xml:space="preserve">
<style type="text/css">
	.st0{fill-rule:evenodd;clip-rule:evenodd;fill:#FFD255;}
	.st1{clip-path:url(#SVGID_00000020361455883815121800000012413310644669848501_);}
	.st2{fill-rule:evenodd;clip-rule:evenodd;fill:#D8AF3F;}
	.st3{fill-rule:evenodd;clip-rule:evenodd;fill:#FEE9AF;}
	.st4{fill-rule:evenodd;clip-rule:evenodd;}
	.st5{fill-rule:evenodd;clip-rule:evenodd;fill:#40B7CD;}
</style>
<g id="Lag_1-2">
	<g>
		<path class="st0" d="M444.4,0c245.3,0,444.4,199.5,444.4,445.3S689.7,890.5,444.4,890.5S0,691,0,445.3S199.1,0,444.4,0L444.4,0z"
			/>
		<g>
			<defs>
				<path id="SVGID_1_" d="M444.4,0c245.3,0,444.4,199.5,444.4,445.3S689.7,890.5,444.4,890.5S0,691,0,445.3S199.1,0,444.4,0
					L444.4,0z"/>
			</defs>
			<clipPath id="SVGID_00000162325410611376580270000002331826141188683404_">
				<use xlink:href="#SVGID_1_"  style="overflow:visible;"/>
			</clipPath>
			<g style="clip-path:url(#SVGID_00000162325410611376580270000002331826141188683404_);">
				<path class="st2" d="M-13.4,413.6c0,0,170.5,678.9,813,334.5l-12.5,372.6L5,1094.8L-13.4,413.6L-13.4,413.6z"/>
				<path class="st3" d="M758.4,175c6.8,0,12.4,6.2,12.4,13.8s-5.6,13.8-12.4,13.8s-12.4-6.2-12.4-13.8S751.6,175,758.4,175
					L758.4,175z M570.8,61.2c9.5-14.1,57.1-7.3,104.1,24.5s72.8,71.8,63.3,85.9c-9.5,14.1-43.1-27.4-90.1-59.1
					C601.2,80.8,561.2,75.3,570.8,61.2L570.8,61.2L570.8,61.2z"/>
				<path class="st4" d="M626.2,242.5c15,0,27.1,30.5,27.1,68.1s-12.1,68.1-27.1,68.1s-27.1-30.5-27.1-68.1S611.2,242.5,626.2,242.5
					L626.2,242.5z"/>
				<path class="st4" d="M263.7,242.5c15,0,27.1,30.5,27.1,68.1s-12.1,68.1-27.1,68.1s-27.1-30.5-27.1-68.1S248.8,242.5,263.7,242.5
					L263.7,242.5z"/>
				<path class="st4" d="M273.2,662.2c0,0,27.2-45.3,73-78.8c30.1-22,68.2-39,112.1-34c47.6,5.4,101.5,36.5,159.1,113.4
					c2.1,2.8,6.1,3.4,9,1.3s3.4-6.1,1.3-9c-60.5-80.8-117.8-112.8-167.9-118.5c-47.3-5.3-88.6,12.7-121.1,36.4
					c-48,35.1-76.5,82.5-76.5,82.5c-1.8,3-0.8,7,2.2,8.8S271.4,665.3,273.2,662.2L273.2,662.2L273.2,662.2z"/>
				<path class="st5" d="M258.9,392.2c0,0-38.2,92.3-38.2,131.8c0,21.1,17.1,38.2,38.2,38.2s38.2-17.1,38.2-38.2
					C297.1,484.5,258.9,392.2,258.9,392.2L258.9,392.2z"/>
			</g>
		</g>
	</g>
</g>
</svg>
