<?xml version="1.0" encoding="UTF-8"?>
<svg id="Lag_2" data-name="Lag 2" xmlns="http://www.w3.org/2000/svg" xmlns:xlink="http://www.w3.org/1999/xlink" viewBox="0 0 924.59 1148.42">
  <defs>
    <style>
      .cls-1 {
        fill: #40b7cd;
      }

      .cls-1, .cls-2, .cls-3, .cls-4, .cls-5 {
        fill-rule: evenodd;
      }

      .cls-6 {
        clip-path: url(#clippath-2);
      }

      .cls-2 {
        fill: #d8af3f;
      }

      .cls-3 {
        fill: #ffd255;
      }

      .cls-4 {
        fill: #ff676b;
      }

      .cls-7 {
        clip-path: url(#clippath-1);
      }

      .cls-7, .cls-8 {
        clip-rule: evenodd;
        fill: none;
      }

      .cls-9 {
        clip-path: url(#clippath);
      }

      .cls-10 {
        clip-path: url(#clippath-3);
      }
    </style>
    <clipPath id="clippath">
      <path class="cls-8" d="m469.15,0c251.36,0,455.44,204.46,455.44,456.29s-204.07,456.29-455.44,456.29S13.71,708.13,13.71,456.29,217.79,0,469.15,0h0Z"/>
    </clipPath>
    <clipPath id="clippath-1">
      <path class="cls-8" d="m688.03,545.6H249.36v24.12c0,121.14,98.2,219.34,219.34,219.34h0c121.14,0,219.34-98.2,219.34-219.34v-24.12h0Z"/>
    </clipPath>
    <clipPath id="clippath-2">
      <path class="cls-7" d="m469.15,0c251.36,0,455.44,204.46,455.44,456.29s-204.07,456.29-455.44,456.29S13.71,708.13,13.71,456.29,217.79,0,469.15,0h0Z"/>
    </clipPath>
    <clipPath id="clippath-3">
      <path class="cls-8" d="m469.15,0c251.36,0,455.44,204.46,455.44,456.29s-204.07,456.29-455.44,456.29S13.71,708.13,13.71,456.29,217.79,0,469.15,0h0Z"/>
    </clipPath>
  </defs>
  <g id="Lag_1-2" data-name="Lag 1">
    <g>
      <path class="cls-3" d="m469.15,0c251.36,0,455.44,204.46,455.44,456.29s-204.07,456.29-455.44,456.29S13.71,708.13,13.71,456.29,217.79,0,469.15,0h0Z"/>
      <g class="cls-9">
        <path class="cls-2" d="m0,423.81s174.74,695.68,833.18,342.78l-12.76,381.84-801.64-26.5L0,423.81h0Z"/>
        <path class="cls-5" d="m688.03,545.6H249.36v24.12c0,121.14,98.2,219.34,219.34,219.34h0c121.14,0,219.34-98.2,219.34-219.34v-24.12h0Z"/>
      </g>
      <g class="cls-6">
        <path class="cls-4" d="m468.32,648.11c89.28,0,161.76,60.59,161.76,135.23s-72.48,135.23-161.76,135.23-161.76-60.59-161.76-135.23,72.48-135.23,161.76-135.23h0Z"/>
      </g>
      <g class="cls-10">
        <path class="cls-5" d="m550.92,373.44s76.97-53.56,166.68.25c3.1,1.86,7.13.85,8.99-2.25,1.86-3.1.85-7.13-2.25-8.99-97.38-58.41-180.93.25-180.93.25-2.96,2.07-3.69,6.16-1.62,9.13,2.07,2.96,6.16,3.69,9.13,1.62h0Zm-332.06,0s76.98-53.56,166.68.25c3.1,1.86,7.13.85,8.99-2.25,1.86-3.1.85-7.13-2.25-8.99-97.38-58.41-180.93.25-180.93.25-2.96,2.07-3.69,6.16-1.62,9.13,2.07,2.96,6.16,3.69,9.13,1.62h0Z"/>
        <path class="cls-1" d="m709.2,401.52s22.18,93.57,44.6,124.23c12.16,16.63,35.53,20.26,52.15,8.1,16.63-12.16,20.26-35.53,8.1-52.15-22.42-30.66-104.85-80.17-104.85-80.17h0Z"/>
        <path class="cls-1" d="m229.07,401.52s-22.18,93.57-44.6,124.23c-12.16,16.63-35.53,20.26-52.15,8.1-16.63-12.16-20.26-35.53-8.1-52.15,22.42-30.66,104.85-80.17,104.85-80.17h0Z"/>
      </g>
    </g>
  </g>
</svg>