<?xml version="1.0" encoding="utf-8"?>
<!-- Generator: Adobe Illustrator 27.5.0, SVG Export Plug-In . SVG Version: 6.00 Build 0)  -->
<svg version="1.1" id="Lag_2_00000076578129617008524280000008931564245937448123_"
	 xmlns="http://www.w3.org/2000/svg" xmlns:xlink="http://www.w3.org/1999/xlink" x="0px" y="0px" viewBox="0 0 910.9 912.6"
	 style="enable-background:new 0 0 910.9 912.6;" xml:space="preserve">
<style type="text/css">
	.st0{fill-rule:evenodd;clip-rule:evenodd;fill:#FFD255;}
	.st1{clip-path:url(#SVGID_00000022527070704970267020000003274322870298406528_);}
	.st2{fill-rule:evenodd;clip-rule:evenodd;fill:#D8AF3F;}
	.st3{fill-rule:evenodd;clip-rule:evenodd;fill:#FEE9AF;}
	.st4{fill-rule:evenodd;clip-rule:evenodd;}
</style>
<g id="Lag_1-2">
	<g>
		<path class="st0" d="M455.4,0c251.4,0,455.4,204.5,455.4,456.3S706.8,912.6,455.4,912.6S0,708.1,0,456.3S204.1,0,455.4,0L455.4,0z
			"/>
		<g>
			<defs>
				<path id="SVGID_1_" d="M455.4,0c251.4,0,455.4,204.5,455.4,456.3S706.8,912.6,455.4,912.6S0,708.1,0,456.3S204.1,0,455.4,0
					L455.4,0z"/>
			</defs>
			<clipPath id="SVGID_00000107551389507805014360000004999560054289224085_">
				<use xlink:href="#SVGID_1_"  style="overflow:visible;"/>
			</clipPath>
			<g style="clip-path:url(#SVGID_00000107551389507805014360000004999560054289224085_);">
				<path class="st2" d="M-13.7,423.8c0,0,174.7,695.7,833.2,342.8l-12.8,381.8L5.1,1121.9L-13.7,423.8L-13.7,423.8z"/>
				<path class="st3" d="M777.2,179.3c7,0,12.7,6.3,12.7,14.1s-5.7,14.1-12.7,14.1s-12.7-6.3-12.7-14.1S770.2,179.3,777.2,179.3
					L777.2,179.3z M584.9,62.7c9.8-14.5,58.5-7.4,106.7,25.1c48.1,32.5,74.7,73.6,64.9,88.1c-9.8,14.5-44.2-28.1-92.3-60.6
					S575.2,77.2,584.9,62.7L584.9,62.7L584.9,62.7z"/>
				<path class="st4" d="M264.2,616.5c0,0,32.2,45.1,84.2,78.4c35.1,22.5,79.1,39.6,128.4,34.5c52.4-5.4,110.9-35.8,170.7-112.7
					c2.2-2.9,1.7-7-1.2-9.2c-2.9-2.2-7-1.7-9.2,1.2c-56.8,73.1-111.9,102.6-161.6,107.7c-46,4.7-87.2-11.5-120-32.5
					c-49.8-31.9-80.6-75-80.6-75c-2.1-2.9-6.2-3.6-9.1-1.5S262.1,613.6,264.2,616.5L264.2,616.5L264.2,616.5z"/>
				<path class="st4" d="M425.7,332.6L401,438.3c-3,12.6-14.2,21.6-27.2,21.6H172.4c-13.9,0-25.7-10.2-27.7-24
					c-4.6-32.4-12.8-90.1-17.9-126.2c-1.2-8.1,1.3-16.3,6.6-22.4c5.4-6.2,13.1-9.7,21.3-9.7h248.6c8.5,0,16.6,3.9,21.9,10.6
					c5.1,6.4,7.1,14.7,5.5,22.7H481c-1.6-8,0.5-16.3,5.5-22.7c5.3-6.7,13.4-10.6,21.9-10.6H757c8.2,0,15.9,3.5,21.3,9.7
					c5.3,6.2,7.8,14.3,6.6,22.4c-5.1,36.1-13.3,93.8-17.9,126.2c-2,13.8-13.8,24-27.7,24H538c-13,0-24.3-9-27.2-21.6l-24.7-105.6
					H425.7L425.7,332.6z"/>
			</g>
		</g>
	</g>
</g>
</svg>
