<?xml version="1.0" encoding="utf-8"?>
<!-- Generator: Adobe Illustrator 27.5.0, SVG Export Plug-In . SVG Version: 6.00 Build 0)  -->
<svg version="1.1" id="Lag_2_00000164485612768460662170000014029247739150158260_"
	 xmlns="http://www.w3.org/2000/svg" xmlns:xlink="http://www.w3.org/1999/xlink" x="0px" y="0px" viewBox="0 0 869 870.7"
	 style="enable-background:new 0 0 869 870.7;" xml:space="preserve">
<style type="text/css">
	.st0{fill-rule:evenodd;clip-rule:evenodd;fill:#FFD255;}
	.st1{clip-path:url(#SVGID_00000130630432048178504840000003205829393054518451_);}
	.st2{fill-rule:evenodd;clip-rule:evenodd;fill:#D8AF3F;}
	.st3{fill-rule:evenodd;clip-rule:evenodd;fill:#FEE9AF;}
	.st4{fill-rule:evenodd;clip-rule:evenodd;}
</style>
<g id="Lag_1-2">
	<g>
		<path class="st0" d="M434.5,0C674.3,0,869,195.1,869,435.3S674.3,870.7,434.5,870.7S0,675.6,0,435.3S194.7,0,434.5,0L434.5,0z"/>
		<g>
			<defs>
				<path id="SVGID_1_" d="M434.5,0C674.3,0,869,195.1,869,435.3S674.3,870.7,434.5,870.7S0,675.6,0,435.3S194.7,0,434.5,0L434.5,0z
					"/>
			</defs>
			<clipPath id="SVGID_00000106128855543739470140000017173583473001085105_">
				<use xlink:href="#SVGID_1_"  style="overflow:visible;"/>
			</clipPath>
			<g style="clip-path:url(#SVGID_00000106128855543739470140000017173583473001085105_);">
				<path class="st2" d="M-13.1,404.3c0,0,166.7,663.7,794.9,327l-12.2,364.3L4.8,1070.4L-13.1,404.3L-13.1,404.3z"/>
				<path class="st3" d="M741.5,171.1c6.7,0,12.1,6,12.1,13.5s-5.4,13.5-12.1,13.5s-12.1-6-12.1-13.5S734.8,171.1,741.5,171.1
					L741.5,171.1z M558.1,59.8c9.3-13.8,55.9-7.1,101.8,23.9s71.2,70.3,61.9,84s-42.2-26.8-88-57.8C587.8,79,548.7,73.6,558.1,59.8
					C558.1,59.8,558.1,59.8,558.1,59.8z"/>
				<path class="st4" d="M612.2,237.1c14.6,0,26.5,29.8,26.5,66.6s-11.9,66.6-26.5,66.6s-26.5-29.8-26.5-66.6
					S597.6,237.1,612.2,237.1L612.2,237.1z"/>
				<path class="st4" d="M257.8,237.1c14.6,0,26.5,29.8,26.5,66.6s-11.9,66.6-26.5,66.6c-14.6,0-26.5-29.8-26.5-66.6
					S243.2,237.1,257.8,237.1L257.8,237.1z"/>
				<path class="st4" d="M267.1,647.5c0,0,26.6-44.3,71.4-77.1c29.4-21.5,66.7-38.1,109.6-33.3c46.5,5.3,99.2,35.7,155.5,110.9
					c2.1,2.8,6,3.3,8.8,1.3c2.8-2.1,3.3-6,1.3-8.8c-59.2-79-115.2-110.3-164.1-115.8c-46.3-5.2-86.6,12.4-118.4,35.6
					c-46.9,34.3-74.8,80.7-74.8,80.7c-1.8,3-0.8,6.8,2.1,8.6C261.5,651.4,265.3,650.5,267.1,647.5L267.1,647.5L267.1,647.5z"/>
			</g>
		</g>
	</g>
</g>
</svg>
