<?xml version="1.0" encoding="UTF-8"?>
<svg id="Lag_2" data-name="Lag 2" xmlns="http://www.w3.org/2000/svg" viewBox="0 0 341.22 350">
  <defs>
    <style>
      .cls-1 {
        fill: #ffd600;
      }

      .cls-2 {
        fill: #fff100;
      }
    </style>
  </defs>
  <g id="Layer_1" data-name="Layer 1">
    <g>
      <polygon class="cls-1" points="170.61 0 197.65 56.54 246.54 17.33 246.37 80 307.43 65.89 280.08 122.28 341.22 136.06 292.12 175 341.22 213.94 280.08 227.72 307.43 284.11 246.37 270 246.54 332.67 197.65 293.46 170.61 350 143.57 293.46 94.68 332.67 94.85 270 33.79 284.11 61.14 227.72 0 213.94 49.11 175 0 136.06 61.14 122.28 33.79 65.89 94.85 80 94.68 17.33 143.57 56.54 170.61 0"/>
      <path class="cls-2" d="m61.73,175c0,60.13,48.75,108.88,108.88,108.88s108.88-48.75,108.88-108.88-48.75-108.88-108.88-108.88c-60.13,0-108.88,48.75-108.88,108.88Z"/>
    </g>
  </g>
</svg>