<?xml version="1.0" encoding="UTF-8"?>
<svg id="Lag_2" data-name="Lag 2" xmlns="http://www.w3.org/2000/svg" xmlns:xlink="http://www.w3.org/1999/xlink" viewBox="0 0 897.12 898.81">
  <defs>
    <style>
      .cls-1 {
        clip-path: url(#clippath-2);
      }

      .cls-2 {
        fill: #fee9af;
      }

      .cls-2, .cls-3, .cls-4, .cls-5, .cls-6 {
        fill-rule: evenodd;
      }

      .cls-3 {
        fill: #d8af3f;
      }

      .cls-4 {
        fill: #ffd255;
      }

      .cls-5 {
        fill: #ff676b;
      }

      .cls-7 {
        clip-path: url(#clippath-1);
      }

      .cls-7, .cls-8 {
        clip-rule: evenodd;
        fill: none;
      }

      .cls-9 {
        clip-path: url(#clippath);
      }

      .cls-10 {
        clip-path: url(#clippath-3);
      }
    </style>
    <clipPath id="clippath">
      <path class="cls-8" d="m448.56,0c247.57,0,448.56,201.37,448.56,449.4s-200.99,449.4-448.56,449.4S0,697.44,0,449.4,200.99,0,448.56,0h0Z"/>
    </clipPath>
    <clipPath id="clippath-1">
      <path class="cls-8" d="m664.14,537.36H232.09v23.76c0,57.29,22.76,112.24,63.27,152.75,40.51,40.51,95.46,63.27,152.75,63.27h0c119.31,0,216.03-96.72,216.03-216.03v-23.76h0Z"/>
    </clipPath>
    <clipPath id="clippath-2">
      <path class="cls-7" d="m448.56,0c247.57,0,448.56,201.37,448.56,449.4s-200.99,449.4-448.56,449.4S0,697.44,0,449.4,200.99,0,448.56,0h0Z"/>
    </clipPath>
    <clipPath id="clippath-3">
      <path class="cls-8" d="m448.56,0c247.57,0,448.56,201.37,448.56,449.4s-200.99,449.4-448.56,449.4S0,697.44,0,449.4,200.99,0,448.56,0h0Z"/>
    </clipPath>
  </defs>
  <g id="Lag_1-2" data-name="Lag 1">
    <g>
      <path class="cls-4" d="m448.56,0c247.57,0,448.56,201.37,448.56,449.4s-200.99,449.4-448.56,449.4S0,697.44,0,449.4,200.99,0,448.56,0h0Z"/>
      <g class="cls-9">
        <path class="cls-3" d="m-13.51,417.41s172.1,685.18,820.6,337.6l-12.56,376.07L5,1104.98-13.51,417.41h0Z"/>
        <path class="cls-2" d="m765.47,176.64c6.91,0,12.52,6.23,12.52,13.91s-5.61,13.91-12.52,13.91-12.52-6.23-12.52-13.91,5.61-13.91,12.52-13.91h0Z"/>
        <path class="cls-2" d="m576.09,61.77c9.62-14.24,57.66-7.32,105.05,24.69,47.39,32.01,73.53,72.52,63.91,86.76-9.62,14.24-43.51-27.62-90.9-59.63-47.39-32.01-87.68-37.57-78.07-51.81h0Z"/>
        <path class="cls-6" d="m664.14,537.36H232.09v23.76c0,57.29,22.76,112.24,63.27,152.75,40.51,40.51,95.46,63.27,152.75,63.27h0c119.31,0,216.03-96.72,216.03-216.03v-23.76h0Z"/>
      </g>
      <g class="cls-1">
        <path class="cls-5" d="m447.74,638.32c87.93,0,159.32,59.68,159.32,133.18s-71.39,133.19-159.32,133.19-159.32-59.68-159.32-133.19,71.39-133.18,159.32-133.18h0Z"/>
      </g>
      <g class="cls-10">
        <path class="cls-5" d="m602.29,334.86c66.86-81.45,106.98-60.97,117.06-31.19,10.08,29.78-9.87,68.87-49.88,97.72-29.01,22.15-80.07,33.03-120.14,37.22-20.11-34.9-41.25-82.65-40.32-119.13-.1-49.33,19.85-88.41,49.88-97.72,30.03-9.3,70.15,11.17,43.4,113.1h0Zm-307,0c-66.86-81.45-106.98-60.97-117.06-31.19-10.08,29.78,9.87,68.87,49.88,97.72,29,22.15,80.07,33.03,120.14,37.22,20.11-34.9,41.25-82.65,40.32-119.13.1-49.33-19.85-88.41-49.88-97.72-30.03-9.3-70.15,11.17-43.4,113.1h0Z"/>
      </g>
    </g>
  </g>
</svg>