<?xml version="1.0" encoding="UTF-8"?>
<svg id="Lag_2" data-name="Lag 2" xmlns="http://www.w3.org/2000/svg" xmlns:xlink="http://www.w3.org/1999/xlink" viewBox="0 0 924.59 1148.42">
  <defs>
    <style>
      .cls-1 {
        fill: #40b7cd;
      }

      .cls-1, .cls-2, .cls-3, .cls-4, .cls-5 {
        fill-rule: evenodd;
      }

      .cls-6 {
        clip-path: url(#clippath-2);
      }

      .cls-2 {
        fill: #d8af3f;
      }

      .cls-3 {
        fill: #ffd255;
      }

      .cls-4 {
        fill: #ff676b;
      }

      .cls-7 {
        clip-path: url(#clippath-1);
      }

      .cls-7, .cls-8 {
        clip-rule: evenodd;
        fill: none;
      }

      .cls-9 {
        clip-path: url(#clippath);
      }

      .cls-10 {
        clip-path: url(#clippath-3);
      }
    </style>
    <clipPath id="clippath">
      <path class="cls-8" d="m469.15,0c251.36,0,455.44,204.46,455.44,456.29s-204.08,456.29-455.44,456.29S13.71,708.13,13.71,456.29,217.79,0,469.15,0h0Z"/>
    </clipPath>
    <clipPath id="clippath-1">
      <path class="cls-8" d="m688.04,545.6H249.36v24.12c0,121.14,98.2,219.34,219.34,219.34h0c121.14,0,219.34-98.2,219.34-219.34v-24.12h0Z"/>
    </clipPath>
    <clipPath id="clippath-2">
      <path class="cls-7" d="m469.15,0c251.36,0,455.44,204.46,455.44,456.29s-204.08,456.29-455.44,456.29S13.71,708.13,13.71,456.29,217.79,0,469.15,0h0Z"/>
    </clipPath>
    <clipPath id="clippath-3">
      <path class="cls-8" d="m469.15,0c251.36,0,455.44,204.46,455.44,456.29s-204.08,456.29-455.44,456.29S13.71,708.13,13.71,456.29,217.79,0,469.15,0h0Z"/>
    </clipPath>
  </defs>
  <g id="Lag_1-2" data-name="Lag 1">
    <g>
      <path class="cls-3" d="m469.15,0c251.36,0,455.44,204.46,455.44,456.29s-204.08,456.29-455.44,456.29S13.71,708.13,13.71,456.29,217.79,0,469.15,0h0Z"/>
      <g class="cls-9">
        <path class="cls-2" d="m0,423.81s174.74,695.68,833.18,342.78l-12.76,381.84-801.64-26.5L0,423.81h0Z"/>
        <path class="cls-5" d="m688.04,545.6H249.36v24.12c0,121.14,98.2,219.34,219.34,219.34h0c121.14,0,219.34-98.2,219.34-219.34v-24.12h0Z"/>
      </g>
      <g class="cls-6">
        <path class="cls-4" d="m468.32,648.11c89.28,0,161.76,60.59,161.76,135.23s-72.48,135.23-161.76,135.23-161.76-60.59-161.76-135.23,72.48-135.23,161.76-135.23h0Z"/>
      </g>
      <g class="cls-10">
        <path class="cls-5" d="m568.36,386.53s7.68-20.6,21.17-35.84c7.99-9.03,18.03-16.46,30.09-14.43,14.21,2.4,29.95,16.79,47.99,51.03,1.69,3.2,5.65,4.43,8.85,2.74,3.2-1.69,4.43-5.65,2.74-8.85-20.99-39.83-40.87-55.05-57.4-57.84-16.64-2.81-31.06,6.21-42.08,18.67-15.03,16.99-23.63,39.93-23.63,39.93-1.27,3.39.46,7.17,3.84,8.43,3.39,1.27,7.17-.45,8.43-3.84h0Zm-294.68,0s7.68-20.6,21.17-35.84c7.99-9.03,18.02-16.46,30.09-14.43,14.22,2.4,29.95,16.79,47.99,51.03,1.69,3.2,5.65,4.43,8.85,2.74,3.2-1.69,4.43-5.65,2.74-8.85-20.99-39.83-40.87-55.05-57.4-57.84-16.64-2.81-31.06,6.21-42.08,18.67-15.03,16.99-23.63,39.93-23.63,39.93-1.27,3.39.46,7.17,3.84,8.43,3.39,1.27,7.17-.45,8.43-3.84h0Z"/>
      </g>
      <path class="cls-1" d="m174.22,28.62s-48.19,138.74-48.19,198.21c0,26.6,21.59,48.2,48.19,48.2s48.2-21.6,48.2-48.2c0-59.46-48.2-198.21-48.2-198.21h0Z"/>
    </g>
  </g>
</svg>