<?xml version="1.0" encoding="UTF-8"?>
<svg id="Lag_2" data-name="Lag 2" xmlns="http://www.w3.org/2000/svg" xmlns:xlink="http://www.w3.org/1999/xlink" viewBox="0 0 888.86 890.53">
  <defs>
    <style>
      .cls-1 {
        fill: #40b7cd;
      }

      .cls-1, .cls-2, .cls-3, .cls-4, .cls-5 {
        fill-rule: evenodd;
      }

      .cls-6 {
        clip-path: url(#clippath-2);
      }

      .cls-2 {
        fill: #fee9af;
      }

      .cls-3 {
        fill: #ffd255;
      }

      .cls-4 {
        fill: #ff676b;
      }

      .cls-7 {
        clip-path: url(#clippath-1);
      }

      .cls-7, .cls-8 {
        clip-rule: evenodd;
        fill: none;
      }

      .cls-9 {
        clip-path: url(#clippath);
      }
    </style>
    <clipPath id="clippath">
      <path class="cls-8" d="m444.43,0c245.29,0,444.43,199.52,444.43,445.26s-199.14,445.26-444.43,445.26S0,691.01,0,445.26,199.14,0,444.43,0h0Z"/>
    </clipPath>
    <clipPath id="clippath-1">
      <path class="cls-8" d="m445.14,583.44c37.32,0,67.61,38.09,67.61,85s-30.3,85-67.61,85-67.61-38.08-67.61-85,30.3-85,67.61-85h0Z"/>
    </clipPath>
    <clipPath id="clippath-2">
      <path class="cls-7" d="m444.43,0c245.29,0,444.43,199.52,444.43,445.26s-199.14,445.26-444.43,445.26S0,691.01,0,445.26,199.14,0,444.43,0h0Z"/>
    </clipPath>
  </defs>
  <g id="Lag_1-2" data-name="Lag 1">
    <g>
      <path class="cls-3" d="m444.43,0c245.29,0,444.43,199.52,444.43,445.26s-199.14,445.26-444.43,445.26S0,691.01,0,445.26,199.14,0,444.43,0h0Z"/>
      <g class="cls-9">
        <path class="cls-2" d="m758.41,175.01c6.84,0,12.4,6.18,12.4,13.78s-5.56,13.79-12.4,13.79-12.4-6.18-12.4-13.79,5.56-13.78,12.4-13.78h0Zm-187.63-113.81c9.53-14.11,57.13-7.26,104.08,24.46,46.95,31.72,72.85,71.85,63.32,85.95-9.53,14.11-43.11-27.37-90.06-59.08-46.95-31.72-86.88-37.22-77.35-51.33h0Z"/>
        <path class="cls-1" d="m652.35,343.52h-118v536.22h118V343.52h0Zm-297.32,0h-118v536.22h118V343.52h0Z"/>
        <path class="cls-5" d="m516.08,349.39h163.11c3.53,0,6.39-2.86,6.39-6.39s-2.86-6.4-6.39-6.4h-163.11c-3.53,0-6.39,2.86-6.39,6.4s2.87,6.39,6.39,6.39h0Zm-306.33,0h163.11c3.53,0,6.39-2.86,6.39-6.39s-2.87-6.4-6.39-6.4h-163.11c-3.53,0-6.4,2.86-6.4,6.4s2.87,6.39,6.4,6.39h0Z"/>
        <path class="cls-5" d="m445.14,583.44c37.32,0,67.61,38.09,67.61,85s-30.3,85-67.61,85-67.61-38.08-67.61-85,30.3-85,67.61-85h0Z"/>
      </g>
      <g class="cls-6">
        <path class="cls-4" d="m444.86,684.43c39.37,0,71.33,26.61,71.33,59.39s-31.96,59.39-71.33,59.39-71.33-26.61-71.33-59.39,31.96-59.39,71.33-59.39h0Z"/>
      </g>
    </g>
  </g>
</svg>