<?xml version="1.0" encoding="UTF-8"?>
<svg id="Lag_2" data-name="Lag 2" xmlns="http://www.w3.org/2000/svg" xmlns:xlink="http://www.w3.org/1999/xlink" viewBox="0 0 924.59 1148.42">
  <defs>
    <style>
      .cls-1 {
        fill: #fee9af;
      }

      .cls-1, .cls-2, .cls-3, .cls-4, .cls-5 {
        fill-rule: evenodd;
      }

      .cls-2 {
        fill: #d8af3f;
      }

      .cls-3 {
        fill: #ffd255;
      }

      .cls-4 {
        fill: #ff676b;
      }

      .cls-6 {
        clip-path: url(#clippath);
      }

      .cls-7 {
        clip-rule: evenodd;
        fill: none;
      }
    </style>
    <clipPath id="clippath">
      <path class="cls-7" d="m469.15,0c251.36,0,455.44,204.46,455.44,456.29s-204.07,456.29-455.44,456.29S13.71,708.13,13.71,456.29,217.79,0,469.15,0h0Z"/>
    </clipPath>
  </defs>
  <g id="Lag_1-2" data-name="Lag 1">
    <g>
      <path class="cls-3" d="m469.15,0c251.36,0,455.44,204.46,455.44,456.29s-204.07,456.29-455.44,456.29S13.71,708.13,13.71,456.29,217.79,0,469.15,0h0Z"/>
      <g class="cls-6">
        <path class="cls-2" d="m0,423.81s174.74,695.68,833.18,342.78l-12.76,381.84-801.64-26.5L0,423.81h0Z"/>
        <path class="cls-1" d="m790.91,179.34c7.02,0,12.71,6.33,12.71,14.13s-5.7,14.13-12.71,14.13-12.71-6.33-12.71-14.13,5.7-14.13,12.71-14.13h0Z"/>
        <path class="cls-1" d="m598.63,62.71c9.77-14.46,58.55-7.44,106.66,25.07,48.11,32.5,74.66,73.63,64.89,88.08-9.77,14.46-44.18-28.05-92.29-60.55-48.11-32.5-89.03-38.15-79.26-52.6h0Z"/>
        <path class="cls-5" d="m688.03,545.6H249.36c0,116.05,94.08,210.14,210.14,210.14h18.4c116.05,0,210.14-94.08,210.14-210.14h0Z"/>
        <path class="cls-4" d="m571.19,580.81h-203.65v137.15c0,56.24,45.59,101.82,101.82,101.82h0c56.23,0,101.82-45.59,101.82-101.82v-137.15h0Z"/>
        <path class="cls-5" d="m217.11,276.93l143.05,52.22-143.09,53.35c-3.39,1.26-5.11,5.04-3.85,8.43s5.04,5.12,8.43,3.85l159.74-59.55c2.57-.96,4.27-3.42,4.26-6.16-.01-2.74-1.73-5.19-4.31-6.13l-159.74-58.31c-3.4-1.24-7.16.51-8.4,3.91-1.24,3.4.51,7.16,3.91,8.4h0Zm500.44-12.31l-159.74,58.31c-2.58.94-4.3,3.39-4.31,6.13,0,2.74,1.69,5.2,4.26,6.16l159.74,59.55c3.39,1.26,7.17-.46,8.43-3.85,1.26-3.39-.46-7.17-3.85-8.43l-143.09-53.35,143.05-52.22c3.4-1.24,5.15-5.01,3.91-8.4-1.24-3.4-5.01-5.15-8.4-3.91h0Z"/>
      </g>
    </g>
  </g>
</svg>