<?xml version="1.0" encoding="UTF-8"?>
<svg id="Lag_2" data-name="Lag 2" xmlns="http://www.w3.org/2000/svg" xmlns:xlink="http://www.w3.org/1999/xlink" viewBox="0 0 902.24 1120.66">
  <defs>
    <style>
      .cls-1 {
        fill: #40b7cd;
      }

      .cls-1, .cls-2, .cls-3, .cls-4 {
        fill-rule: evenodd;
      }

      .cls-2 {
        fill: #d8af3f;
      }

      .cls-3 {
        fill: #ffd255;
      }

      .cls-5 {
        clip-path: url(#clippath);
      }

      .cls-6 {
        clip-rule: evenodd;
        fill: none;
      }
    </style>
    <clipPath id="clippath">
      <path class="cls-6" d="m457.81,0c245.29,0,444.43,199.51,444.43,445.26s-199.14,445.26-444.43,445.26S13.38,691.01,13.38,445.26,212.52,0,457.81,0h0Z"/>
    </clipPath>
  </defs>
  <g id="Lag_1-2" data-name="Lag 1">
    <g>
      <path class="cls-3" d="m457.81,0c245.29,0,444.43,199.51,444.43,445.26s-199.14,445.26-444.43,445.26S13.38,691.01,13.38,445.26,212.52,0,457.81,0h0Z"/>
      <g class="cls-5">
        <path class="cls-2" d="m0,413.56s170.52,678.86,813.04,334.49l-12.45,372.61-782.25-25.86L0,413.56h0Z"/>
        <path class="cls-1" d="m543.39,644.99c-1.41,9.73-2.7,19.26-2.54,29.12.12,7.49.53,15.01,1.84,22.4.81,4.54,1.89,9.07,3.04,13.54,3.14,12.15,13.63,21.81,23.01,8.01,5.79-8.52,5.6-20.31,9.08-29.84,1.76-4.83,4.51-11.21,10.52-6.57,6.94,5.36,7.69,15.03,7.55,23.07-.28,16.12-4.26,33.4-.35,49.27,1.44,5.86,3.02,13.91,8.56,17.44,4.54,2.89,10.06-.38,13.16-3.85,7.91-8.82,9.95-21.18,11.06-32.53,4.21-43.02-.16-84.9-5.32-127.44"/>
        <path class="cls-4" d="m537.6,364.41s75.11-52.27,162.65.24c3.03,1.82,6.96.83,8.77-2.19,1.82-3.03.83-6.96-2.2-8.77-95.02-57-176.56.24-176.56.24-2.89,2.02-3.6,6.01-1.58,8.9,2.02,2.89,6.01,3.6,8.91,1.58h0Zm-324.03,0s75.11-52.27,162.65.24c3.03,1.82,6.96.83,8.77-2.19,1.82-3.03.83-6.96-2.19-8.77-95.02-57-176.56.24-176.56.24-2.89,2.02-3.6,6.01-1.58,8.9,2.02,2.89,6.01,3.6,8.91,1.58h0Z"/>
        <path class="cls-4" d="m294.25,612.38s148.88,120.84,327.16.33c2.92-1.98,3.69-5.96,1.72-8.88-1.98-2.92-5.96-3.69-8.88-1.72-170,114.91-311.95.33-311.95.33-2.74-2.22-6.77-1.8-8.99.95-2.22,2.74-1.8,6.77.95,8.99h0Z"/>
      </g>
    </g>
  </g>
</svg>