<?xml version="1.0" encoding="UTF-8"?>
<svg id="Lag_2" data-name="Lag 2" xmlns="http://www.w3.org/2000/svg" xmlns:xlink="http://www.w3.org/1999/xlink" viewBox="0 0 902.24 1120.66">
  <defs>
    <style>
      .cls-1 {
        clip-path: url(#clippath-2);
      }

      .cls-2 {
        fill: #fee9af;
      }

      .cls-2, .cls-3, .cls-4, .cls-5, .cls-6 {
        fill-rule: evenodd;
      }

      .cls-3 {
        fill: #d8af3f;
      }

      .cls-4 {
        fill: #ffd255;
      }

      .cls-5 {
        fill: #ff676b;
      }

      .cls-7 {
        clip-path: url(#clippath-1);
      }

      .cls-7, .cls-8 {
        clip-rule: evenodd;
        fill: none;
      }

      .cls-9 {
        clip-path: url(#clippath);
      }
    </style>
    <clipPath id="clippath">
      <path class="cls-8" d="m457.81,0c245.29,0,444.43,199.52,444.43,445.26s-199.14,445.26-444.43,445.26S13.38,691.01,13.38,445.26,212.52,0,457.81,0h0Z"/>
    </clipPath>
    <clipPath id="clippath-1">
      <path class="cls-8" d="m458.14,583.54c64.68,0,122.42,45.11,122.42,81.5s-57.74,50.39-122.42,50.39-121.89-13.99-121.89-50.39,57.21-81.5,121.89-81.5h0Z"/>
    </clipPath>
    <clipPath id="clippath-2">
      <path class="cls-7" d="m457.81,0c245.29,0,444.43,199.52,444.43,445.26s-199.14,445.26-444.43,445.26S13.38,691.01,13.38,445.26,212.52,0,457.81,0h0Z"/>
    </clipPath>
  </defs>
  <g id="Lag_1-2" data-name="Lag 1">
    <g>
      <path class="cls-4" d="m457.81,0c245.29,0,444.43,199.52,444.43,445.26s-199.14,445.26-444.43,445.26S13.38,691.01,13.38,445.26,212.52,0,457.81,0h0Z"/>
      <g class="cls-9">
        <path class="cls-3" d="m0,413.56s170.52,678.86,813.04,334.49l-12.45,372.61-782.25-25.86L0,413.56h0Z"/>
        <path class="cls-2" d="m771.79,175.01c6.85,0,12.4,6.18,12.4,13.78s-5.56,13.78-12.4,13.78-12.4-6.18-12.4-13.78,5.56-13.78,12.4-13.78h0Zm-187.63-113.81c9.53-14.11,57.13-7.26,104.08,24.46,46.95,31.72,72.85,71.85,63.32,85.96-9.53,14.11-43.11-27.37-90.06-59.09-46.95-31.72-86.88-37.22-77.35-51.33h0Z"/>
        <path class="cls-6" d="m639.57,242.5c14.95,0,27.09,30.51,27.09,68.09s-12.14,68.09-27.09,68.09-27.09-30.51-27.09-68.09,12.14-68.09,27.09-68.09h0Z"/>
        <path class="cls-6" d="m277.09,242.5c14.95,0,27.09,30.51,27.09,68.09s-12.14,68.09-27.09,68.09-27.09-30.51-27.09-68.09,12.14-68.09,27.09-68.09h0Z"/>
        <path class="cls-6" d="m458.14,583.54c64.68,0,122.42,45.11,122.42,81.5s-57.74,50.39-122.42,50.39-121.89-13.99-121.89-50.39,57.21-81.5,121.89-81.5h0Z"/>
      </g>
      <g class="cls-1">
        <path class="cls-5" d="m458.27,659.59c63.69,0,115.4,30.61,115.4,68.32s-51.71,68.32-115.4,68.32-115.4-30.61-115.4-68.32,51.71-68.32,115.4-68.32h0Z"/>
      </g>
    </g>
  </g>
</svg>