<?xml version="1.0" encoding="UTF-8"?>
<svg id="Lag_2" data-name="Lag 2" xmlns="http://www.w3.org/2000/svg" xmlns:xlink="http://www.w3.org/1999/xlink" viewBox="0 0 910.88 912.59">
  <defs>
    <style>
      .cls-1 {
        fill: #fee9af;
      }

      .cls-1, .cls-2, .cls-3, .cls-4 {
        fill-rule: evenodd;
      }

      .cls-2 {
        fill: #d8af3f;
      }

      .cls-3 {
        fill: #ffd255;
      }

      .cls-5 {
        clip-path: url(#clippath);
      }

      .cls-6 {
        clip-rule: evenodd;
        fill: none;
      }
    </style>
    <clipPath id="clippath">
      <path class="cls-6" d="m455.44,0c251.36,0,455.44,204.46,455.44,456.29s-204.07,456.3-455.44,456.3S0,708.13,0,456.29,204.08,0,455.44,0h0Z"/>
    </clipPath>
  </defs>
  <g id="Lag_1-2" data-name="Lag 1">
    <g>
      <path class="cls-3" d="m455.44,0c251.36,0,455.44,204.46,455.44,456.29s-204.07,456.3-455.44,456.3S0,708.13,0,456.29,204.08,0,455.44,0h0Z"/>
      <g class="cls-5">
        <path class="cls-2" d="m-13.71,423.81s174.74,695.68,833.18,342.78l-12.76,381.84L5.08,1121.92-13.71,423.81h0Z"/>
        <path class="cls-1" d="m777.2,179.34c7.02,0,12.71,6.33,12.71,14.13s-5.69,14.13-12.71,14.13-12.71-6.33-12.71-14.13,5.7-14.13,12.71-14.13h0Zm-192.28-116.63c9.77-14.46,58.55-7.44,106.66,25.07,48.11,32.5,74.66,73.63,64.89,88.09-9.77,14.46-44.18-28.05-92.29-60.55-48.11-32.5-89.03-38.15-79.26-52.6h0Z"/>
        <path class="cls-4" d="m264.24,616.54s32.18,45.09,84.23,78.43c35.09,22.48,79.15,39.58,128.39,34.51,52.36-5.38,110.9-35.81,170.65-112.73,2.22-2.86,1.7-6.98-1.16-9.19-2.86-2.22-6.98-1.7-9.19,1.15-56.75,73.06-111.91,102.62-161.64,107.74-46.04,4.73-87.17-11.49-119.98-32.51-49.81-31.91-80.64-75.02-80.64-75.02-2.1-2.94-6.2-3.62-9.14-1.52-2.94,2.1-3.62,6.2-1.52,9.14h0Z"/>
        <path class="cls-4" d="m425.67,332.63l-24.7,105.64c-2.96,12.65-14.24,21.6-27.23,21.6h-201.3c-13.93,0-25.73-10.25-27.68-24.04-4.59-32.39-12.78-90.15-17.89-126.23-1.15-8.08,1.27-16.26,6.62-22.42,5.35-6.16,13.11-9.7,21.27-9.7h248.55c8.53,0,16.6,3.9,21.91,10.58,5.09,6.42,7.1,14.72,5.54,22.73h50.19c-1.56-8,.45-16.31,5.54-22.73,5.3-6.69,13.37-10.58,21.91-10.58h248.55c8.16,0,15.92,3.54,21.27,9.7,5.35,6.16,7.76,14.34,6.62,22.42-5.11,36.09-13.3,93.84-17.89,126.23-1.95,13.79-13.76,24.04-27.68,24.04h-201.3c-12.99,0-24.27-8.95-27.23-21.6l-24.69-105.64h-60.36Z"/>
      </g>
    </g>
  </g>
</svg>