<?xml version="1.0" encoding="UTF-8"?>
<svg id="Lag_2" data-name="Lag 2" xmlns="http://www.w3.org/2000/svg" xmlns:xlink="http://www.w3.org/1999/xlink" viewBox="0 0 869.04 870.67">
  <defs>
    <style>
      .cls-1 {
        fill: #40b7cd;
      }

      .cls-1, .cls-2, .cls-3, .cls-4, .cls-5 {
        fill-rule: evenodd;
      }

      .cls-2 {
        fill: #fee9af;
      }

      .cls-3 {
        fill: #d8af3f;
      }

      .cls-4 {
        fill: #ffd255;
      }

      .cls-6 {
        clip-path: url(#clippath);
      }

      .cls-7 {
        clip-rule: evenodd;
        fill: none;
      }
    </style>
    <clipPath id="clippath">
      <path class="cls-7" d="m434.52,0c239.82,0,434.52,195.07,434.52,435.34s-194.7,435.34-434.52,435.34S0,675.6,0,435.34,194.7,0,434.52,0h0Z"/>
    </clipPath>
  </defs>
  <g id="Lag_1-2" data-name="Lag 1">
    <g>
      <path class="cls-4" d="m434.52,0c239.82,0,434.52,195.07,434.52,435.34s-194.7,435.34-434.52,435.34S0,675.6,0,435.34,194.7,0,434.52,0h0Z"/>
      <g class="cls-6">
        <path class="cls-3" d="m-13.08,404.34s166.72,663.73,794.91,327.03l-12.17,364.3L4.85,1070.39-13.08,404.34h0Z"/>
        <path class="cls-2" d="m741.5,171.11c6.69,0,12.13,6.04,12.13,13.48s-5.43,13.48-12.13,13.48-12.13-6.04-12.13-13.48,5.43-13.48,12.13-13.48h0Zm-183.45-111.27c9.32-13.79,55.86-7.09,101.76,23.92,45.9,31.01,71.23,70.25,61.91,84.04-9.32,13.79-42.15-26.76-88.05-57.77-45.9-31.01-84.94-36.39-75.62-50.19h0Z"/>
        <path class="cls-5" d="m323.92,659.39s49.01-53.92,119.93-48.53c30.59,2.32,65.15,15.75,101.69,48.95,2.55,2.32,6.51,2.13,8.83-.42,2.32-2.55,2.13-6.51-.42-8.83-39.17-35.59-76.36-49.68-109.15-52.17-76.94-5.85-130.13,52.59-130.13,52.59-2.32,2.55-2.14,6.51.42,8.83,2.55,2.32,6.51,2.13,8.83-.42h0Z"/>
        <path class="cls-5" d="m530.82,327.14c14.62,0,26.48,29.83,26.48,66.57s-11.87,66.57-26.48,66.57-26.48-29.83-26.48-66.57,11.87-66.57,26.48-66.57h0Z"/>
        <path class="cls-5" d="m339.24,327.14c14.62,0,26.48,29.83,26.48,66.57s-11.87,66.57-26.48,66.57-26.48-29.83-26.48-66.57,11.87-66.57,26.48-66.57h0Z"/>
        <path class="cls-5" d="m357.27,206.93l-162.41,68.6c-3.18,1.34-4.67,5.01-3.33,8.19,1.34,3.18,5.01,4.67,8.19,3.33l162.41-68.6c3.18-1.34,4.67-5.01,3.33-8.19-1.34-3.18-5.01-4.67-8.19-3.33h0Zm150.05,11.52l162.41,68.6c3.18,1.34,6.85-.15,8.19-3.33,1.34-3.18-.15-6.85-3.33-8.19l-162.41-68.6c-3.18-1.34-6.85.15-8.19,3.33-1.34,3.18.15,6.85,3.33,8.19h0Z"/>
        <path class="cls-1" d="m194.79,355.74s-36.22,103.05-36.22,140.71c0,19.99,16.23,36.22,36.22,36.22s36.22-16.23,36.22-36.22c0-37.66-36.22-140.71-36.22-140.71h0Z"/>
      </g>
    </g>
  </g>
</svg>