<?xml version="1.0" encoding="UTF-8"?>
<svg id="Lag_2" data-name="Lag 2" xmlns="http://www.w3.org/2000/svg" xmlns:xlink="http://www.w3.org/1999/xlink" viewBox="0 0 910.63 1131.08">
  <defs>
    <style>
      .cls-1 {
        fill: #fee9af;
      }

      .cls-1, .cls-2, .cls-3, .cls-4 {
        fill-rule: evenodd;
      }

      .cls-2 {
        fill: #d8af3f;
      }

      .cls-3 {
        fill: #ffd255;
      }

      .cls-5 {
        clip-path: url(#clippath);
      }

      .cls-6 {
        clip-rule: evenodd;
        fill: none;
      }
    </style>
    <clipPath id="clippath">
      <path class="cls-6" d="m462.07,0c247.57,0,448.56,201.37,448.56,449.4s-200.99,449.4-448.56,449.4S13.51,697.44,13.51,449.4,214.5,0,462.07,0h0Z"/>
    </clipPath>
  </defs>
  <g id="Lag_1-2" data-name="Lag 1">
    <g>
      <path class="cls-3" d="m462.07,0c247.57,0,448.56,201.37,448.56,449.4s-200.99,449.4-448.56,449.4S13.51,697.44,13.51,449.4,214.5,0,462.07,0h0Z"/>
      <g class="cls-5">
        <path class="cls-2" d="m0,417.41s172.1,685.18,820.6,337.6l-12.56,376.07-789.53-26.1L0,417.41h0Z"/>
        <path class="cls-1" d="m778.97,176.64c6.91,0,12.52,6.23,12.52,13.91s-5.61,13.91-12.52,13.91-12.52-6.23-12.52-13.91,5.61-13.91,12.52-13.91h0Zm-189.38-114.87c9.62-14.24,57.66-7.32,105.05,24.69,47.39,32.01,73.53,72.52,63.91,86.76-9.62,14.24-43.51-27.62-90.9-59.63-47.39-32.01-87.68-37.57-78.07-51.81h0Z"/>
        <path class="cls-4" d="m559.77,380.69s7.57-20.29,20.85-35.3c7.87-8.89,17.75-16.21,29.63-14.21,14,2.36,29.5,16.54,47.26,50.26,1.66,3.15,5.57,4.36,8.72,2.7,3.15-1.66,4.36-5.57,2.7-8.72-20.67-39.23-40.25-54.22-56.54-56.97-16.39-2.76-30.59,6.12-41.45,18.39-14.81,16.73-23.27,39.33-23.27,39.33-1.25,3.34.45,7.06,3.78,8.3,3.34,1.25,7.06-.45,8.31-3.79h0Zm-290.23,0s7.57-20.29,20.85-35.3c7.87-8.89,17.75-16.21,29.63-14.21,14,2.36,29.5,16.54,47.26,50.26,1.66,3.15,5.57,4.36,8.72,2.7,3.15-1.66,4.36-5.57,2.7-8.72-20.67-39.23-40.25-54.22-56.54-56.97-16.39-2.76-30.59,6.12-41.45,18.39-14.81,16.73-23.27,39.33-23.27,39.33-1.25,3.34.45,7.06,3.78,8.3,3.34,1.25,7.06-.45,8.31-3.79h0Z"/>
        <path class="cls-4" d="m273.76,607.23s31.7,44.41,82.96,77.25c34.56,22.15,77.95,38.98,126.45,33.99,51.57-5.3,109.22-35.27,168.07-111.03,2.19-2.81,1.68-6.87-1.14-9.06-2.81-2.18-6.87-1.67-9.06,1.14-55.89,71.96-110.22,101.07-159.2,106.11-45.35,4.66-85.85-11.32-118.17-32.02-49.06-31.43-79.42-73.88-79.42-73.88-2.07-2.9-6.1-3.57-9-1.5-2.9,2.07-3.57,6.1-1.5,9h0Z"/>
      </g>
    </g>
  </g>
</svg>